<svg width="24" height="24" viewBox="0 0 24 24" fill="none" xmlns="http://www.w3.org/2000/svg">
<g clip-path="url(#clip0_6436_61328)">
<path d="M17.2173 1.19072C15.6396 0.427875 13.8697 0 11.9999 0C10.13 0 8.36012 0.427875 6.7825 1.19072L5.73901 12L6.7825 22.8093C8.36012 23.5721 10.13 24 11.9999 24C13.8697 24 15.6396 23.5721 17.2173 22.8093L18.2607 12L17.2173 1.19072Z" fill="#D80027"/>
<path d="M6.78262 1.19135C2.76872 3.1323 0 7.24272 0 12.0002C0 16.7577 2.76872 20.8681 6.78262 22.8091V1.19135Z" fill="black"/>
<path d="M17.2175 1.19135V22.8091C21.2314 20.8681 24.0002 16.7577 24.0002 12.0002C24.0002 7.24272 21.2314 3.1323 17.2175 1.19135Z" fill="#496E2D"/>
<path d="M11.9996 7.82672C9.69436 7.82672 7.82568 9.69544 7.82568 12.0006C7.82568 14.3058 9.6944 16.1745 11.9996 16.1745C14.3047 16.1745 16.1735 14.3058 16.1735 12.0006C16.1735 9.69544 14.3048 7.82672 11.9996 7.82672ZM11.9996 14.6093C10.5588 14.6093 9.39089 13.4413 9.39089 12.0006C9.39089 10.5599 10.5589 9.39192 11.9996 9.39192C13.4403 9.39192 14.6083 10.5599 14.6083 12.0006C14.6083 13.4413 13.4403 14.6093 11.9996 14.6093Z" fill="#FFDA44"/>
<path d="M12 10.4362C11.4237 10.4362 10.9565 10.9034 10.9565 11.4797V13.0449H13.0435V11.4797C13.0435 10.9034 12.5764 10.4362 12 10.4362Z" fill="#FFDA44"/>
</g>
<defs>
<clipPath id="clip0_6436_61328">
<rect width="24" height="24" fill="white"/>
</clipPath>
</defs>
</svg>
