<svg width="24" height="24" viewBox="0 0 24 24" fill="none" xmlns="http://www.w3.org/2000/svg">
<g clip-path="url(#clip0_6436_61374)">
<path d="M0 12C0 5.37262 5.37262 0 12 0C18.6274 0 24 5.37262 24 12C23.4783 12 12 13.5652 12 13.5652L0 12Z" fill="#D80027"/>
<path d="M23.9998 12.0004C23.9998 18.6277 18.6271 24.0004 11.9998 24.0004C5.37238 24.0004 -0.000244141 18.6277 -0.000244141 12.0004" fill="black"/>
<path d="M10.354 9.54359L11.3713 10.2819L10.9836 11.4776L12.0002 10.7381L13.0175 11.4763L12.6284 10.281L13.6448 9.54162L12.3879 9.54237L11.9987 8.34711L11.611 9.5428L10.354 9.54359Z" fill="#FFDA44"/>
<path d="M14.9997 6.80332C14.054 6.25736 13.0201 5.99969 11.9997 6.00147V7.56635C12.7539 7.56499 13.5181 7.7553 14.217 8.1589C16.3348 9.38158 17.063 12.0992 15.8402 14.2169C14.6176 16.3346 11.9 17.0628 9.78224 15.8402C9.16527 15.484 8.66722 15.0003 8.3001 14.4422L6.99341 15.3048C7.49014 16.06 8.16496 16.7137 8.99966 17.1956C11.8648 18.8498 15.5416 17.8646 17.1958 14.9995C18.85 12.1343 17.8648 8.45754 14.9997 6.80332Z" fill="#FFDA44"/>
<path d="M8.53947 10.956C8.12463 11.7144 8.40316 12.6655 9.1615 13.0804L14.245 15.8582C13.8993 16.4901 14.083 17.2593 14.7149 17.605L16.0881 18.3561C16.72 18.7019 17.5127 18.4698 17.8584 17.8378L18.6096 16.4646L8.53947 10.956Z" fill="#FFDA44"/>
</g>
<defs>
<clipPath id="clip0_6436_61374">
<rect width="24" height="24" fill="white"/>
</clipPath>
</defs>
</svg>
