<svg width="24" height="24" viewBox="0 0 24 24" fill="none" xmlns="http://www.w3.org/2000/svg">
<g clip-path="url(#clip0_6436_61336)">
<path d="M23.5864 15.1299C23.8554 14.1317 23.9998 13.0826 23.9998 11.9994C23.9998 10.9163 23.8554 9.86715 23.5864 8.869L10.9563 0.045105C8.61154 0.247136 6.45983 1.12323 4.69541 2.4789L0.413146 8.869C0.144131 9.86715 -0.000244141 10.9163 -0.000244141 11.9994C-0.000244141 13.0763 0.142396 14.1197 0.408412 15.1126L4.69536 21.52C6.45979 22.8757 8.61149 23.7518 10.9562 23.9538L23.5864 15.1299Z" fill="#FFDA44"/>
<path d="M0.412842 15.1305C1.10715 17.7067 2.63739 19.9395 4.69511 21.5206V15.1305H0.412842Z" fill="#0052B4"/>
<path d="M10.9558 23.9544C11.2998 23.984 11.6476 24.0001 11.9993 24.0001C17.5436 24.0001 22.2089 20.2397 23.5859 15.1305H10.9558V23.9544Z" fill="#0052B4"/>
<path d="M23.5859 8.86955C22.2089 3.76036 17.5436 0 11.9993 0C11.6476 0 11.2998 0.0160312 10.9558 0.0456562V8.86955H23.5859Z" fill="#0052B4"/>
<path d="M4.69511 2.4798C2.63739 4.06089 1.10715 6.29369 0.412842 8.86989H4.69511V2.4798Z" fill="#0052B4"/>
<path d="M23.8987 10.4343H9.3916H9.39156V0.284729C8.28259 0.530635 7.23123 0.929213 6.2611 1.45857V10.4342H0.101822C0.0350254 10.9466 0.000244141 11.469 0.000244141 11.9995C0.000244141 12.53 0.0350254 13.0524 0.101822 13.5647H6.26106H6.2611V22.5404C7.23123 23.0697 8.28259 23.4684 9.39156 23.7142V13.5648V13.5647H23.8987C23.9654 13.0524 24.0002 12.53 24.0002 11.9995C24.0002 11.469 23.9654 10.9466 23.8987 10.4343Z" fill="#D80027"/>
</g>
<defs>
<clipPath id="clip0_6436_61336">
<rect width="24" height="24" fill="white"/>
</clipPath>
</defs>
</svg>
