<svg width="24" height="24" viewBox="0 0 24 24" fill="none" xmlns="http://www.w3.org/2000/svg">
<g clip-path="url(#clip0_6436_61514)">
<path d="M24 12C24 18.6274 18.6274 24 12 24C5.37262 24 0 18.6274 0 12C0 12.0029 12 0.0013125 12 0C18.6274 0 24 5.37262 24 12Z" fill="#D80027"/>
<path d="M11.9998 5.73886V9.78619L7.82593 5.73886H11.9998Z" fill="#0052B4"/>
<path d="M6.26073 11.9996H9.78625L6.26073 7.30392L5.73901 10.9561L6.26073 11.9996Z" fill="#0052B4"/>
<path d="M11.9683 12.0012H12.0004C12.0004 11.9904 12.0004 11.9799 12.0004 11.969C11.9897 11.9798 11.979 11.9905 11.9683 12.0012Z" fill="#F0F0F0"/>
<path d="M11.999 6.26141C11.999 4.14992 11.999 2.76641 11.999 0.000549316H11.997C5.37048 0.00167432 -0.000976562 5.37378 -0.000976562 12.0005H6.25988V8.47503L9.7854 12.0005H11.967C11.9776 11.9899 11.9883 11.9792 11.9991 11.9684C11.9991 11.16 11.9991 10.4386 11.9991 9.78702L8.47346 6.26141H11.999Z" fill="#F0F0F0"/>
<path d="M6.07051 1.56525C4.19368 2.63395 2.63335 4.19423 1.5647 6.07106V12.5218H4.69515V4.6958V4.6957H12.5212C12.5212 3.70837 12.5212 2.76778 12.5212 1.56525H6.07051Z" fill="#D80027"/>
<path d="M12.4762 11.0002L7.73563 6.25977H6.26001V6.25986L12.4761 12.4759H12.4762C12.4762 12.476 12.4762 11.4584 12.4762 11.0002Z" fill="#D80027"/>
<path d="M13.5652 6.25989V11.999C13.5652 14.7946 20.8695 14.7946 20.8695 11.999V6.25989H13.5652Z" fill="#F3F3F3"/>
<path d="M13.5652 12.0006V12.0005C13.5652 14.7961 17.2174 15.6527 17.2174 15.6527C17.2174 15.6527 20.8695 14.7961 20.8695 12.0005V12.0006H13.5652Z" fill="#6DA544"/>
<path d="M17.2174 9.7045L15.5217 10.4349V12.0001L17.2174 13.0436L18.913 12.0001V10.4349L17.2174 9.7045Z" fill="#A2001D"/>
<path d="M18.913 8.86859H15.5217V10.4338H18.913V8.86859Z" fill="#338AF3"/>
</g>
<defs>
<clipPath id="clip0_6436_61514">
<rect width="24" height="24" fill="white"/>
</clipPath>
</defs>
</svg>
