<svg width="24" height="24" viewBox="0 0 24 24" fill="none" xmlns="http://www.w3.org/2000/svg">
<g clip-path="url(#clip0_6436_61718)">
<path d="M12.0004 23.9977C18.6269 23.9977 23.9987 18.6259 23.9987 11.9994C23.9987 5.37299 18.6269 0.00119019 12.0004 0.00119019C5.37399 0.00119019 0.00219727 5.37299 0.00219727 11.9994C0.00219727 18.6259 5.37399 23.9977 12.0004 23.9977Z" fill="#F0F0F0"/>
<path d="M1.60965 6.00125C1.06809 6.93915 0.668609 7.9197 0.402588 8.91849L20.4682 20.5035C21.2002 19.7737 21.8497 18.9373 22.3911 17.9995L1.60965 6.00125Z" fill="black"/>
<path d="M17.999 1.60923C13.1981 -1.1625 7.27864 -0.238711 3.53198 3.49693L23.5976 15.0818C24.9595 9.96943 22.7998 4.38101 17.999 1.60923Z" fill="#FFDA44"/>
<path d="M6.00079 22.3899C10.8015 25.1617 16.7212 24.2379 20.4678 20.5023L0.402062 8.91724C-0.959733 14.0298 1.19994 19.6182 6.00079 22.3899Z" fill="#FFDA44"/>
<path d="M15.3908 10.6963C15.3908 12.569 13.8727 14.0872 12 14.0872C10.1273 14.0872 8.60916 12.569 8.60916 10.6963C8.60916 10.1125 8.75677 9.56303 9.01675 9.08334C8.28094 9.83584 7.82666 10.8649 7.82666 12.0005C7.82666 14.3053 9.69509 16.1738 12 16.1738C14.3049 16.1738 16.1733 14.3054 16.1733 12.0005C16.1733 10.8649 15.7191 9.83584 14.9832 9.08334C15.2432 9.56312 15.3908 10.1125 15.3908 10.6963Z" fill="#D80027"/>
<path d="M12.7828 6.78357H11.2178V14.6085H12.7828V6.78357Z" fill="#D80027"/>
<path d="M14.608 8.3483H9.39136C9.39136 8.70845 9.7051 9.00039 10.0652 9.00039H10.0435C10.0435 9.36054 10.3354 9.65248 10.6955 9.65248C10.6955 10.0126 10.9875 10.3046 11.3476 10.3046H12.6518C13.0119 10.3046 13.3039 10.0126 13.3039 9.65248C13.664 9.65248 13.956 9.36054 13.956 9.00039H13.9343C14.2943 9.00034 14.608 8.70849 14.608 8.3483Z" fill="#D80027"/>
<path d="M15.6519 15.13H8.34863V16.695H15.6519V15.13Z" fill="#D80027"/>
<path d="M16.6946 15.651H13.5647V17.216H16.6946V15.651Z" fill="#D80027"/>
<path d="M10.4349 15.651H7.30493V17.216H10.4349V15.651Z" fill="#D80027"/>
</g>
<defs>
<clipPath id="clip0_6436_61718">
<rect width="24" height="24" fill="white"/>
</clipPath>
</defs>
</svg>
