<svg width="24" height="24" viewBox="0 0 24 24" fill="none" xmlns="http://www.w3.org/2000/svg">
<g clip-path="url(#clip0_6436_62909)">
<path d="M12 24C18.6274 24 24 18.6274 24 12C24 5.37258 18.6274 0 12 0C5.37258 0 0 5.37258 0 12C0 18.6274 5.37258 24 12 24Z" fill="#F0F0F0"/>
<path d="M11.9998 0.00095049C11.9886 -0.00748701 -0.00343101 11.9978 -0.000243505 12.0009C-0.000243505 5.37358 5.37238 0.00095049 11.9998 0.00095049Z" fill="#D80027"/>
<path d="M11.9998 -2.60721e-05C12.011 -0.00846357 24.003 11.9968 23.9998 12C23.9998 5.3726 18.6271 -2.60721e-05 11.9998 -2.60721e-05Z" fill="#D80027"/>
<path d="M11.9995 23.9994C11.9883 24.0078 -0.00367515 12.0026 -0.000487646 11.9994C-0.000487646 18.6268 5.37214 23.9994 11.9995 23.9994Z" fill="#0052B4"/>
<path d="M11.9995 23.999C12.0107 24.0074 24.0027 12.0021 23.9995 11.999C23.9995 18.6263 18.6269 23.999 11.9995 23.999Z" fill="#0052B4"/>
<path d="M12 6.26068L13.2951 10.2464H17.4859L14.0954 12.7097L15.3905 16.6955L12 14.2322L8.60956 16.6955L9.90463 12.7097L6.51416 10.2464H10.705L12 6.26068Z" fill="#FFDA44"/>
</g>
<defs>
<clipPath id="clip0_6436_62909">
<rect width="24" height="24" fill="white"/>
</clipPath>
</defs>
</svg>
