<svg width="24" height="24" viewBox="0 0 24 24" fill="none" xmlns="http://www.w3.org/2000/svg">
<g clip-path="url(#clip0_6436_61498)">
<path d="M23.9995 12C23.9995 7.88156 21.9244 4.24814 18.763 2.08701L11.9995 1.56525L5.23606 2.08697C2.07467 4.24814 -0.000488281 7.88161 -0.000488281 12C-0.000488281 16.1186 2.07467 19.752 5.23606 21.9131L11.9995 22.4348L18.763 21.9131C21.9244 19.752 23.9995 16.1186 23.9995 12Z" fill="#0052B4"/>
<path d="M18.764 2.08712C16.8381 0.77059 14.5095 0.000152588 12.0005 0.000152588C9.49162 0.000152588 7.16292 0.77059 5.23706 2.08712H18.764Z" fill="#A2001D"/>
<path d="M5.23633 21.9133C7.16214 23.2299 9.49089 24.0003 11.9998 24.0003C14.5087 24.0003 16.8374 23.2299 18.7632 21.9133H5.23633Z" fill="#A2001D"/>
<path d="M12.0004 17.7382C15.17 17.7382 17.7395 15.1687 17.7395 11.999C17.7395 8.82939 15.17 6.25989 12.0004 6.25989C8.83073 6.25989 6.26123 8.82939 6.26123 11.999C6.26123 15.1687 8.83073 17.7382 12.0004 17.7382Z" fill="#F0F0F0"/>
<path d="M11.9999 16.6954C14.5932 16.6954 16.6955 14.5931 16.6955 11.9998C16.6955 9.40643 14.5932 7.30411 11.9999 7.30411C9.40652 7.30411 7.3042 9.40643 7.3042 11.9998C7.3042 14.5931 9.40652 16.6954 11.9999 16.6954Z" fill="#6DA544"/>
<path d="M11.9996 15.1295C13.7285 15.1295 15.13 13.7279 15.13 11.999C15.13 10.2701 13.7285 8.86859 11.9996 8.86859C10.2707 8.86859 8.86914 10.2701 8.86914 11.999C8.86914 13.7279 10.2707 15.1295 11.9996 15.1295Z" fill="#F0F0F0"/>
<path d="M11.9996 11.2171L10.304 11.9997V13.3041L11.9996 14.3476L13.6953 13.3041V11.9997L11.9996 11.2171Z" fill="#0052B4"/>
<path d="M13.6953 10.4358H10.304V12.001H13.6953V10.4358Z" fill="#FFDA44"/>
</g>
<defs>
<clipPath id="clip0_6436_61498">
<rect width="24" height="24" fill="white"/>
</clipPath>
</defs>
</svg>
