<svg width="24" height="24" viewBox="0 0 24 24" fill="none" xmlns="http://www.w3.org/2000/svg">
<g clip-path="url(#clip0_6436_61763)">
<path d="M17.2172 1.1911C15.6396 0.428256 13.8697 0.00038147 11.9999 0.00038147C10.13 0.00038147 8.36012 0.428256 6.7825 1.1911L5.73901 12.0004L6.7825 22.8097C8.36012 23.5725 10.13 24.0004 11.9999 24.0004C13.8697 24.0004 15.6396 23.5725 17.2172 22.8097L18.2607 12.0004L17.2172 1.1911Z" fill="#D80027"/>
<path d="M12.0002 7.82538L13.0361 11.0138H16.389L13.6766 12.9846L14.7126 16.1732L12.0002 14.2025L9.28778 16.1732L10.3239 12.9846L7.61157 11.0138H10.9642L12.0002 7.82538Z" fill="#FFDA44"/>
<path d="M6.78287 1.1917C2.76896 3.1326 0.000244141 7.24302 0.000244141 12.0006C0.000244141 16.7581 2.76896 20.8685 6.78287 22.8094V1.1917Z" fill="#496E2D"/>
<path d="M17.2178 1.1917V22.8094C21.2317 20.8685 24.0004 16.758 24.0004 12.0006C24.0004 7.24307 21.2317 3.1326 17.2178 1.1917Z" fill="#FFDA44"/>
</g>
<defs>
<clipPath id="clip0_6436_61763">
<rect width="24" height="24" fill="white"/>
</clipPath>
</defs>
</svg>
