<svg width="24" height="24" viewBox="0 0 24 24" fill="none" xmlns="http://www.w3.org/2000/svg">
<g clip-path="url(#clip0_6436_61823)">
<path d="M12 24C18.6274 24 24 18.6274 24 12C24 5.37258 18.6274 0 12 0C5.37258 0 0 5.37258 0 12C0 18.6274 5.37258 24 12 24Z" fill="#D80027"/>
<path d="M6.56743 7.30147L7.60337 10.489H10.9549L8.24556 12.4624L9.28149 15.6499L6.56743 13.6812L3.85337 15.6499L4.89399 12.4624L2.17993 10.489H5.53149L6.56743 7.30147Z" fill="#FFDA44"/>
<path d="M14.2262 18.5846L13.434 17.6096L12.2622 18.0643L12.9418 17.0096L12.1497 16.03L13.3637 16.3534L14.0481 15.2987L14.1137 16.555L15.3325 16.8784L14.1559 17.3284L14.2262 18.5846Z" fill="#FFDA44"/>
<path d="M15.802 15.7253L16.177 14.5253L15.1504 13.7987L16.4066 13.78L16.777 12.58L17.1848 13.7706L18.441 13.7565L17.4332 14.5065L17.8363 15.6972L16.8098 14.9706L15.802 15.7253Z" fill="#FFDA44"/>
<path d="M17.9253 8.80663L17.3722 9.93632L18.2722 10.8129L17.03 10.6348L16.4769 11.7598L16.2613 10.5223L15.0144 10.3441L16.13 9.7582L15.9144 8.51601L16.8144 9.39257L17.9253 8.80663Z" fill="#FFDA44"/>
<path d="M14.2592 5.38507L14.1654 6.63664L15.3326 7.11007L14.1092 7.41007L14.0201 8.66632L13.3592 7.59757L12.1357 7.89757L12.9467 6.93664L12.2811 5.87257L13.4482 6.34601L14.2592 5.38507Z" fill="#FFDA44"/>
</g>
<defs>
<clipPath id="clip0_6436_61823">
<rect width="24" height="24" fill="white"/>
</clipPath>
</defs>
</svg>
