<svg width="24" height="24" viewBox="0 0 24 24" fill="none" xmlns="http://www.w3.org/2000/svg">
<g clip-path="url(#clip0_6436_61965)">
<path d="M12 24C18.6274 24 24 18.6274 24 12C24 5.37258 18.6274 0 12 0C5.37258 0 0 5.37258 0 12C0 18.6274 5.37258 24 12 24Z" fill="#F0F0F0"/>
<path d="M9.39214 10.4349H23.8992C23.1322 4.54709 18.0977 0.00012207 12.0008 0.00012207C11.1048 0.00012207 10.2321 0.099169 9.39209 0.285356V10.4349H9.39214Z" fill="#D80027"/>
<path d="M6.26158 10.4357V1.46002C2.96659 3.25787 0.607748 6.55557 0.102295 10.4357H6.26158V10.4357Z" fill="#D80027"/>
<path d="M6.26104 13.5656H0.101807C0.60726 17.4457 2.96611 20.7434 6.26109 22.5412L6.26104 13.5656Z" fill="#D80027"/>
<path d="M9.39209 13.5656V23.7151C10.2321 23.9013 11.1048 24.0003 12.0008 24.0003C18.0977 24.0003 23.1322 19.4534 23.8992 13.5656H9.39209V13.5656Z" fill="#D80027"/>
</g>
<defs>
<clipPath id="clip0_6436_61965">
<rect width="24" height="24" fill="white"/>
</clipPath>
</defs>
</svg>
