<svg width="24" height="24" viewBox="0 0 24 24" fill="none" xmlns="http://www.w3.org/2000/svg">
<g clip-path="url(#clip0_6436_61349)">
<path d="M12.0003 0C18.6276 0 24.0003 5.37262 24.0003 12C24.0003 18.6274 18.6276 24 12.0003 24C12.0003 23.4783 10.4351 12 10.4351 12L12.0003 0Z" fill="#F0F0F0"/>
<path d="M12 24C5.37262 24 0 18.6274 0 12C0 5.37262 5.37262 0 12 0" fill="#496E2D"/>
<path d="M14.5779 9.69867L13.5933 11.0555L11.9988 10.5383L12.9849 11.894L12.0005 13.2508L13.5944 12.7318L14.5806 14.0874L14.5795 12.4111L16.1735 11.8921L14.579 11.3751L14.5779 9.69867Z" fill="#D80027"/>
<path d="M12.9951 15.392C11.1221 15.392 9.60377 13.8736 9.60377 12.0007C9.60377 10.1277 11.1221 8.60935 12.9951 8.60935C13.5791 8.60935 14.1286 8.757 14.6083 9.01697C13.8557 8.28099 12.8265 7.82672 11.6907 7.82672C9.38552 7.82672 7.51685 9.69544 7.51685 12.0006C7.51685 14.3058 9.38557 16.1745 11.6907 16.1745C12.8265 16.1745 13.8557 15.7202 14.6083 14.9843C14.1286 15.2443 13.5791 15.392 12.9951 15.392Z" fill="#D80027"/>
</g>
<defs>
<clipPath id="clip0_6436_61349">
<rect width="24" height="24" fill="white"/>
</clipPath>
</defs>
</svg>
