<svg width="24" height="24" viewBox="0 0 24 24" fill="none" xmlns="http://www.w3.org/2000/svg">
<g clip-path="url(#clip0_6436_62053)">
<path d="M10.957 10.9566C10.957 10.9566 3.52217 20.4871 3.51514 20.4853C5.68667 22.6569 8.68671 24.0001 12.0004 24.0001C18.6278 24.0001 24.0004 18.6275 24.0004 12.0001L10.957 10.9566Z" fill="#338AF3"/>
<path d="M10.957 11.9997C10.957 11.9997 3.52217 3.51273 3.51514 3.51442C5.68667 1.34284 8.68671 -0.00031662 12.0004 -0.00031662C18.6278 -0.00031662 24.0004 5.37231 24.0004 11.9997H10.957Z" fill="#6DA544"/>
<path d="M3.51422 3.5155C-1.17206 8.20178 -1.17206 15.7998 3.51422 20.4861C3.51389 20.488 23.9995 12.0008 23.9995 12.0008L3.51422 3.5155Z" fill="#D80027"/>
<path d="M6.26056 7.04321C3.95905 7.04321 2.08667 8.91563 2.08667 11.2171V12.7823C2.08667 15.0838 3.95909 16.9562 6.26056 16.9562C8.56203 16.9562 10.4345 15.0838 10.4345 12.7823V11.2171C10.4345 8.91563 8.56208 7.04321 6.26056 7.04321ZM8.86925 12.7823C8.86925 13.9482 8.1004 14.9377 7.04314 15.2709V13.565L8.15051 12.4576L7.04375 11.3508L7.04314 10.9569V10.4346H5.47798V11.9997L4.37136 13.1063L5.47798 14.2129V15.271C4.42072 14.9377 3.65187 13.9483 3.65187 12.7824V11.2172C3.65187 9.77874 4.82215 8.60851 6.26056 8.60851C7.69897 8.60851 8.86925 9.77879 8.86925 11.2172V12.7823Z" fill="#FFDA44"/>
</g>
<defs>
<clipPath id="clip0_6436_62053">
<rect width="24" height="24" fill="white"/>
</clipPath>
</defs>
</svg>
