<svg width="24" height="24" viewBox="0 0 24 24" fill="none" xmlns="http://www.w3.org/2000/svg">
<g clip-path="url(#clip0_6436_62064)">
<path d="M-0.000244141 12C-0.000244141 13.4679 0.263803 14.874 0.746193 16.174L11.9998 17.2173L23.2533 16.1739C23.7358 14.874 23.9998 13.4679 23.9998 12C23.9998 10.5522 23.7433 9.1644 23.2735 7.87942L11.9998 6.78259L0.726037 7.87947C0.256209 9.1644 -0.000244141 10.5522 -0.000244141 12Z" fill="#FFDA44"/>
<path d="M11.9999 24.0003C17.1595 24.0003 21.558 20.7438 23.2536 16.1742H0.746338C2.44185 20.7438 6.84037 24.0003 11.9999 24.0003Z" fill="#D80027"/>
<path d="M11.9999 -0.000312805C6.84037 -0.000312805 2.44185 3.25619 0.746338 7.8258H23.2536C21.558 3.25619 17.1595 -0.000312805 11.9999 -0.000312805Z" fill="#6DA544"/>
<path d="M11.9996 17.7398C15.1693 17.7398 17.7388 15.1703 17.7388 12.0007C17.7388 8.83105 15.1693 6.26155 11.9996 6.26155C8.83 6.26155 6.2605 8.83105 6.2605 12.0007C6.2605 15.1703 8.83 17.7398 11.9996 17.7398Z" fill="#0052B4"/>
<path d="M11.9985 7.55645L13.0345 10.745H16.3925L13.6748 12.7157L14.719 15.9137L11.9985 13.9336L9.2822 15.91L10.3222 12.7157L7.60693 10.745H10.9625L11.9985 7.55645Z" fill="#FFDA44"/>
<path d="M16.1308 12.7939L12.8441 11.7259L14.8753 8.93028L14.0312 8.31687L11.9999 11.1127L9.96872 8.31692L9.1245 8.93023L11.1557 11.7261L7.86914 12.7939L8.19155 13.7863L11.4782 12.7185V16.1742H12.5217V12.7184L15.8082 13.7863L16.1308 12.7939Z" fill="#FFDA44"/>
</g>
<defs>
<clipPath id="clip0_6436_62064">
<rect width="24" height="24" fill="white"/>
</clipPath>
</defs>
</svg>
