<svg width="24" height="24" viewBox="0 0 24 24" fill="none" xmlns="http://www.w3.org/2000/svg">
<g clip-path="url(#clip0_6436_62073)">
<path d="M24 12C24 18.6274 18.6274 24 12 24C5.37262 24 0 18.6274 0 12C0 12.0029 12 0.0013125 12 0C18.6274 0 24 5.37262 24 12Z" fill="#0052B4"/>
<path d="M11.9673 12.0003H11.9995C11.9995 11.9895 11.9995 11.979 11.9995 11.9681C11.9887 11.9789 11.978 11.9896 11.9673 12.0003Z" fill="#F0F0F0"/>
<path d="M11.9997 6.26073C11.9997 4.14925 11.9997 2.76573 11.9997 -0.0001297H11.9977C5.37125 0.0009953 -0.000244141 5.3731 -0.000244141 11.9999H6.26061V8.47435L9.78617 11.9999H11.9677C11.9784 11.9892 11.9891 11.9785 11.9998 11.9678C11.9998 11.1593 11.9998 10.4379 11.9998 9.78634L8.47419 6.26073H11.9997Z" fill="#F0F0F0"/>
<path d="M6.07075 1.56496C4.19393 2.63366 2.63364 4.19394 1.56494 6.07077V11.9998H4.69539V4.6955V4.69541H11.9997C11.9997 3.70808 11.9997 2.76749 11.9997 1.56496H6.07075Z" fill="#D80027"/>
<path d="M11.9998 10.5244L7.73641 6.26097H6.26074V6.26106L11.9997 12.0001H11.9998C11.9998 12.0001 11.9998 10.9825 11.9998 10.5244Z" fill="#D80027"/>
<path d="M19.3046 14.0863V14.6081H15.1307V14.0863H13.5654V16.1733H14.6089V16.695H19.8263V16.1733H20.8698V14.0863H19.3046Z" fill="#FFDA44"/>
<path d="M13.5654 6.26155V12.0007C13.5654 14.7963 17.2176 15.6529 17.2176 15.6529C17.2176 15.6529 20.8698 14.7963 20.8698 12.0007V6.26155H13.5654Z" fill="#338AF3"/>
<path d="M17.2179 10.5428C16.3049 10.5428 16.3049 11.3776 15.3919 11.3776C14.4789 11.3776 14.4789 10.5428 13.5659 10.5428V12.0037C14.4789 12.0037 14.4789 12.8385 15.3919 12.8385C16.3049 12.8385 16.3049 12.0037 17.2179 12.0037C18.1309 12.0037 18.1309 12.8385 19.0441 12.8385C19.9572 12.8385 19.9571 12.0037 20.8703 12.0037V10.5428C19.9572 10.5428 19.9572 11.3776 19.0441 11.3776C18.1309 11.3776 18.1309 10.5428 17.2179 10.5428Z" fill="#F3F3F3"/>
<path d="M17.2176 7.61809C16.3046 7.61809 16.3046 8.45288 15.3916 8.45288C14.4787 8.45288 14.4787 7.61809 13.5657 7.61809V9.07895C14.4787 9.07895 14.4787 9.91374 15.3916 9.91374C16.3046 9.91374 16.3046 9.07895 17.2176 9.07895C18.1307 9.07895 18.1307 9.91374 19.0438 9.91374C19.9569 9.91374 19.9569 9.07895 20.87 9.07895V7.61809C19.9569 7.61809 19.9569 8.45288 19.0438 8.45288C18.1307 8.45288 18.1307 7.61809 17.2176 7.61809Z" fill="#F3F3F3"/>
</g>
<defs>
<clipPath id="clip0_6436_62073">
<rect width="24" height="24" fill="white"/>
</clipPath>
</defs>
</svg>
