<svg width="24" height="24" viewBox="0 0 24 24" fill="none" xmlns="http://www.w3.org/2000/svg">
<g clip-path="url(#clip0_6436_62134)">
<path d="M12 24C18.6274 24 24 18.6274 24 12C24 5.37258 18.6274 0 12 0C5.37258 0 0 5.37258 0 12C0 18.6274 5.37258 24 12 24Z" fill="#F0F0F0"/>
<path d="M12.0003 0.000793457C7.03927 0.000793457 2.78171 3.01139 0.954102 7.30514H23.0465C21.2189 3.01139 16.9613 0.000793457 12.0003 0.000793457Z" fill="#A2001D"/>
<path d="M12.0003 24.0007C16.9613 24.0007 21.2189 20.9901 23.0465 16.6964H0.954102C2.78171 20.9901 7.03927 24.0007 12.0003 24.0007Z" fill="#496E2D"/>
<path d="M23.5864 8.86963H0.413146C0.144131 9.86774 -0.000244141 10.9169 -0.000244141 12.0001C-0.000244141 13.0832 0.144131 14.1324 0.413146 15.1305H23.5864C23.8554 14.1324 23.9998 13.0832 23.9998 12.0001C23.9998 10.9169 23.8554 9.86774 23.5864 8.86963Z" fill="#0052B4"/>
</g>
<defs>
<clipPath id="clip0_6436_62134">
<rect width="24" height="24" fill="white"/>
</clipPath>
</defs>
</svg>
