<svg width="24" height="24" viewBox="0 0 24 24" fill="none" xmlns="http://www.w3.org/2000/svg">
<g clip-path="url(#clip0_6436_62167)">
<path d="M12 24C18.6274 24 24 18.6274 24 12C24 5.37258 18.6274 0 12 0C5.37258 0 0 5.37258 0 12C0 18.6274 5.37258 24 12 24Z" fill="#F0F0F0"/>
<path d="M11.9998 8.87002H23.5864C23.2855 7.75373 22.8282 6.70181 22.2385 5.73956H11.9998V8.87002Z" fill="#338AF3"/>
<path d="M4.53082 21.3914H19.4705C20.5656 20.5191 21.5048 19.4597 22.2394 18.2609H1.76196C2.49654 19.4596 3.43573 20.5191 4.53082 21.3914Z" fill="#338AF3"/>
<path d="M4.17457 2.90375C3.23117 3.71614 2.41559 4.67281 1.76196 5.7395H4.17457V2.90375Z" fill="#338AF3"/>
<path d="M12.0002 12C12.0002 10.7776 12.0002 9.75469 12.0002 8.86951H7.30459V12H4.17413V8.86951H0.413635C0.144619 9.86766 0.000244141 10.9168 0.000244141 12C0.000244141 13.0831 0.144619 14.1323 0.413635 15.1304H23.5869C23.8559 14.1323 24.0002 13.0831 24.0002 12H12.0002Z" fill="#338AF3"/>
<path d="M12.0006 0.000671387C10.3342 0.000671387 8.74728 0.340656 7.30493 0.954484V5.73981H12.0006C12.0006 4.64706 12.0006 3.71767 12.0006 2.60936H19.4704C17.4206 0.976796 14.8248 0.000671387 12.0006 0.000671387Z" fill="#338AF3"/>
</g>
<defs>
<clipPath id="clip0_6436_62167">
<rect width="24" height="24" fill="white"/>
</clipPath>
</defs>
</svg>
