<svg width="24" height="24" viewBox="0 0 24 24" fill="none" xmlns="http://www.w3.org/2000/svg">
<g clip-path="url(#clip0_6436_62244)">
<path d="M12 24C18.6274 24 24 18.6274 24 12C24 5.37258 18.6274 0 12 0C5.37258 0 0 5.37258 0 12C0 18.6274 5.37258 24 12 24Z" fill="#F0F0F0"/>
<path d="M12 -0.000946045C9.87837 -0.000946045 7.88581 0.550398 6.15649 1.51649V22.4816C7.88585 23.4477 9.87837 23.9991 12 23.9991C18.6274 23.9991 24 18.6264 24 11.9991C24 5.37168 18.6274 -0.000946045 12 -0.000946045Z" fill="#6DA544"/>
<path d="M6.19203 1.49818C5.4371 1.91654 4.7322 2.41379 4.08818 2.97911C4.15329 2.92201 4.21906 2.86557 4.28534 2.80989L13.4759 12.0005L4.28529 21.1911C4.21896 21.1354 4.15324 21.079 4.08813 21.0219C4.73215 21.5872 5.4371 22.0844 6.19198 22.5028L24.0002 12.0005L6.19203 1.49818Z" fill="#F0F0F0"/>
<path d="M5.17812 2.12691C4.81217 2.38031 4.4607 2.65299 4.12578 2.94441L11.9998 11.9996L4.12573 21.0548C4.46065 21.3463 4.81212 21.619 5.17808 21.8723L21.9457 11.9996L5.17812 2.12691Z" fill="#FFDA44"/>
<path d="M4.28504 2.80988C4.01827 3.03403 3.76084 3.26902 3.51465 3.51516L10.9565 12.0005L3.51465 20.4858C3.76084 20.732 4.01823 20.967 4.28504 21.1911L13.4756 12.0005L4.28504 2.80988Z" fill="black"/>
<path d="M3.51471 3.51428C-1.17157 8.20056 -1.17157 15.7986 3.51471 20.4849C5.45126 18.5484 7.31375 16.6859 12 11.9996L3.51471 3.51428Z" fill="#D80027"/>
</g>
<defs>
<clipPath id="clip0_6436_62244">
<rect width="24" height="24" fill="white"/>
</clipPath>
</defs>
</svg>
