<svg width="24" height="24" viewBox="0 0 24 24" fill="none" xmlns="http://www.w3.org/2000/svg">
<g clip-path="url(#clip0_6436_62273)">
<path d="M12 24C18.6274 24 24 18.6274 24 12C24 5.37258 18.6274 0 12 0C5.37258 0 0 5.37258 0 12C0 18.6274 5.37258 24 12 24Z" fill="#D80027"/>
<path d="M13.2392 9.07757C12.9665 10.2119 12.482 9.99557 12.2442 10.9848C10.8434 10.648 9.9807 9.23943 10.3175 7.83857C10.6542 6.43781 12.0629 5.57512 13.4637 5.91192C12.9881 7.89037 13.4832 8.06306 13.2392 9.07757Z" fill="#F0F0F0"/>
<path d="M9.6042 9.9176C10.5987 10.5274 10.2432 10.9215 11.1105 11.4534C10.3573 12.6816 8.75117 13.0667 7.52295 12.3135C6.29478 11.5604 5.9096 9.95411 6.66279 8.72594C8.39745 9.78963 8.71456 9.37211 9.6042 9.9176Z" fill="#F0F0F0"/>
<path d="M9.27995 13.635C10.1673 12.8776 10.4321 13.3374 11.206 12.677C12.1414 13.7728 12.0113 15.4194 10.9155 16.3548C9.81967 17.2902 8.17304 17.1599 7.23779 16.0642C8.78532 14.7431 8.48621 14.3124 9.27995 13.635Z" fill="#F0F0F0"/>
<path d="M12.7152 15.0915C12.269 14.0135 12.7882 13.9037 12.3992 12.9637C13.7304 12.4128 15.2563 13.0453 15.8072 14.3765C16.3581 15.7077 15.7255 17.2335 14.3943 17.7845C13.6163 15.9044 13.1143 16.0558 12.7152 15.0915Z" fill="#F0F0F0"/>
<path d="M15.162 12.274C13.9989 12.3653 14.0547 11.8375 13.0406 11.917C12.9279 10.4808 14.0011 9.22501 15.4374 9.11228C16.8736 8.99982 18.1294 10.0729 18.242 11.5092C16.2134 11.6683 16.2022 12.1925 15.162 12.274Z" fill="#F0F0F0"/>
</g>
<defs>
<clipPath id="clip0_6436_62273">
<rect width="24" height="24" fill="white"/>
</clipPath>
</defs>
</svg>
