<svg width="24" height="24" viewBox="0 0 24 24" fill="none" xmlns="http://www.w3.org/2000/svg">
<g clip-path="url(#clip0_6436_62262)">
<path d="M12 24C18.6274 24 24 18.6274 24 12C24 5.37258 18.6274 0 12 0C5.37258 0 0 5.37258 0 12C0 18.6274 5.37258 24 12 24Z" fill="#F0F0F0"/>
<path d="M12.0002 23.9987C16.7577 23.9987 20.8685 21.23 22.8095 17.2161H1.19092C3.13192 21.23 7.24267 23.9987 12.0002 23.9987Z" fill="#338AF3"/>
<path d="M12.0009 -0.00094986C7.2434 -0.00094986 3.13265 2.76772 1.19165 6.78167H22.8102C20.8692 2.76772 16.7584 -0.00094986 12.0009 -0.00094986Z" fill="#338AF3"/>
<path d="M7.38553 7.82446L7.77403 9.02019H9.03126L8.01417 9.75912L8.40272 10.9549L7.38553 10.2159L6.36834 10.9549L6.75689 9.75912L5.73975 9.02019H6.99698L7.38553 7.82446Z" fill="#338AF3"/>
<path d="M7.38553 13.0425L7.77403 14.2383H9.03126L8.01417 14.9772L8.40272 16.1729L7.38553 15.4339L6.36834 16.1729L6.75689 14.9772L5.73975 14.2383H6.99698L7.38553 13.0425Z" fill="#338AF3"/>
<path d="M16.615 7.82446L17.0036 9.02019H18.2608L17.2437 9.75912L17.6322 10.9549L16.615 10.2159L15.5978 10.9549L15.9864 9.75912L14.9692 9.02019H16.2265L16.615 7.82446Z" fill="#338AF3"/>
<path d="M16.615 13.0425L17.0036 14.2383H18.2608L17.2437 14.9772L17.6322 16.1729L16.615 15.4339L15.5978 16.1729L15.9864 14.9772L14.9692 14.2383H16.2265L16.615 13.0425Z" fill="#338AF3"/>
<path d="M12 10.4334L12.3886 11.6292H13.6458L12.6287 12.3681L13.0172 13.5638L12 12.8248L10.9828 13.5638L11.3714 12.3681L10.3542 11.6292H11.6115L12 10.4334Z" fill="#338AF3"/>
</g>
<defs>
<clipPath id="clip0_6436_62262">
<rect width="24" height="24" fill="white"/>
</clipPath>
</defs>
</svg>
