<svg width="24" height="24" viewBox="0 0 24 24" fill="none" xmlns="http://www.w3.org/2000/svg">
<g clip-path="url(#clip0_6436_62296)">
<path d="M12 24C18.6274 24 24 18.6274 24 12C24 5.37258 18.6274 0 12 0C5.37258 0 0 5.37258 0 12C0 18.6274 5.37258 24 12 24Z" fill="#F0F0F0"/>
<path d="M12 -0.000946045C7.24242 -0.000946045 3.13167 2.76773 1.19067 6.78168H22.8092C20.8682 2.76773 16.7574 -0.000946045 12 -0.000946045Z" fill="#FF9811"/>
<path d="M12 23.9997C16.7574 23.9997 20.8682 21.231 22.8092 17.217H1.19067C3.13167 21.231 7.24242 23.9997 12 23.9997Z" fill="#6DA544"/>
<path d="M12.0003 16.1732C14.3055 16.1732 16.1742 14.3045 16.1742 11.9993C16.1742 9.69412 14.3055 7.82541 12.0003 7.82541C9.69513 7.82541 7.82642 9.69412 7.82642 11.9993C7.82642 14.3045 9.69513 16.1732 12.0003 16.1732Z" fill="#0052B4"/>
<path d="M12 14.608C13.4408 14.608 14.6087 13.4401 14.6087 11.9994C14.6087 10.5586 13.4408 9.39067 12 9.39067C10.5593 9.39067 9.39136 10.5586 9.39136 11.9994C9.39136 13.4401 10.5593 14.608 12 14.608Z" fill="#F0F0F0"/>
<path d="M12.0004 8.78088L12.8052 10.6061L14.7882 10.3904L13.61 12L14.7882 13.6095L12.8052 13.3939L12.0004 15.2191L11.1956 13.3939L9.21265 13.6095L10.3909 12L9.21265 10.3904L11.1956 10.6061L12.0004 8.78088Z" fill="#0052B4"/>
</g>
<defs>
<clipPath id="clip0_6436_62296">
<rect width="24" height="24" fill="white"/>
</clipPath>
</defs>
</svg>
