<svg width="24" height="24" viewBox="0 0 24 24" fill="none" xmlns="http://www.w3.org/2000/svg">
<g clip-path="url(#clip0_6436_62344)">
<path d="M12 24C18.6274 24 24 18.6274 24 12C24 5.37258 18.6274 0 12 0C5.37258 0 0 5.37258 0 12C0 18.6274 5.37258 24 12 24Z" fill="#FFDA44"/>
<path d="M19.3056 2.48075C17.2822 0.925388 14.7493 0.00012207 11.9999 0.00012207C9.25048 0.00012207 6.71754 0.925434 4.69409 2.48075L11.9999 9.7865L19.3056 2.48075Z" fill="#6DA544"/>
<path d="M2.48033 4.6936C0.925068 6.71706 -0.000244141 9.24995 -0.000244141 11.9994C-0.000244141 14.7488 0.925068 17.2817 2.48038 19.3052L9.78618 11.9994L2.48033 4.6936Z" fill="black"/>
<path d="M4.69409 21.5188C6.71759 23.0741 9.25048 23.9994 11.9999 23.9994C14.7493 23.9994 17.2822 23.0741 19.3057 21.5188L11.9999 14.213L4.69409 21.5188Z" fill="#6DA544"/>
<path d="M21.5194 19.3051C23.0747 17.2816 24 14.7488 24 11.9994C24 9.24995 23.0747 6.71706 21.5194 4.6936L14.2136 11.9994L21.5194 19.3051Z" fill="black"/>
</g>
<defs>
<clipPath id="clip0_6436_62344">
<rect width="24" height="24" fill="white"/>
</clipPath>
</defs>
</svg>
