<svg width="24" height="24" viewBox="0 0 24 24" fill="none" xmlns="http://www.w3.org/2000/svg">
<g clip-path="url(#clip0_6436_62374)">
<path d="M12 24C18.6274 24 24 18.6274 24 12C24 5.37258 18.6274 0 12 0C5.37258 0 0 5.37258 0 12C0 18.6274 5.37258 24 12 24Z" fill="#F0F0F0"/>
<path d="M12.0002 -0.000732422C7.24267 -0.000732422 3.13192 2.76794 1.19092 6.78189H22.8094C20.8685 2.76794 16.7577 -0.000732422 12.0002 -0.000732422Z" fill="black"/>
<path d="M12.0002 24.0001C7.24267 24.0001 3.13192 21.2314 1.19092 17.2175H22.8094C20.8685 21.2314 16.7577 24.0001 12.0002 24.0001Z" fill="#496E2D"/>
<path d="M23.4333 8.34708H0.566672C0.199078 9.49875 0 10.7257 0 11.9992C0 13.2728 0.199078 14.4997 0.566672 15.6514H23.4333C23.8009 14.4997 24 13.2728 24 11.9992C24 10.7257 23.8009 9.49875 23.4333 8.34708Z" fill="#A2001D"/>
<path d="M15.7367 5.54511L14.3156 4.88919L12.0001 10.1322L9.68454 4.88919L8.26343 5.54511L11.1382 11.9998L8.26343 18.4544L9.68454 19.1103L12.0001 13.8673L14.3156 19.1103L15.7367 18.4544L12.862 11.9998L15.7367 5.54511Z" fill="#F0F0F0"/>
<path d="M12.9653 6.16324C12.4152 5.56245 12.0001 5.21707 12.0001 5.21707C12.0001 5.21707 11.585 5.5624 11.0349 6.16324V17.8361C11.585 18.4369 12.0001 18.7823 12.0001 18.7823C12.0001 18.7823 12.4152 18.437 12.9653 17.8361V6.16324Z" fill="#F0F0F0"/>
<path d="M9.3916 8.40226V15.5981C9.97294 16.6282 10.6845 17.4725 11.2177 18.0323V5.96814C10.6845 6.52787 9.9729 7.37223 9.3916 8.40226Z" fill="#A2001D"/>
<path d="M14.6088 8.40284C14.0274 7.37277 13.316 6.52845 12.7827 5.96872V18.0329C13.3159 17.4731 14.0274 16.6288 14.6088 15.5987V8.40284Z" fill="#A2001D"/>
<path d="M14.6086 8.40091V15.5968C15.1972 14.5539 15.6521 13.3206 15.6521 11.9989C15.6521 10.6772 15.1972 9.44388 14.6086 8.40091Z" fill="black"/>
<path d="M9.39139 8.40091V15.5968C8.80287 14.5539 8.3479 13.3206 8.3479 11.9989C8.3479 10.6772 8.80287 9.44388 9.39139 8.40091Z" fill="black"/>
</g>
<defs>
<clipPath id="clip0_6436_62374">
<rect width="24" height="24" fill="white"/>
</clipPath>
</defs>
</svg>
