<svg width="24" height="24" viewBox="0 0 24 24" fill="none" xmlns="http://www.w3.org/2000/svg">
<g clip-path="url(#clip0_6436_61756)">
<path d="M0.000244141 12.0009C0.000244141 14.0798 0.529135 16.0351 1.45932 17.74L12.0002 18.7835L22.5412 17.74C23.4714 16.0351 24.0002 14.0798 24.0002 12.0009C24.0002 9.92195 23.4714 7.96661 22.5412 6.26172L12.0002 5.21823L1.45932 6.26172C0.529135 7.96661 0.000244141 9.92195 0.000244141 12.0009Z" fill="#D80027"/>
<path d="M1.45898 6.26126H22.5408C20.5056 2.53113 16.5484 0.000396729 11.9999 0.000396729C7.45139 0.000396729 3.49425 2.53113 1.45898 6.26126Z" fill="#0052B4"/>
<path d="M11.9999 24.0009C16.5484 24.0009 20.5056 21.4701 22.5408 17.74H1.45898C3.49425 21.4701 7.45139 24.0009 11.9999 24.0009Z" fill="#0052B4"/>
<path d="M16.1742 14.3474V12.7822H15.1308V10.6952L14.0873 9.65173L13.0438 10.6952V8.60824L12.0003 7.56476L10.9569 8.60824V10.6952L9.91337 9.65173L8.86988 10.6952V12.7822H7.82644V14.3474H6.78296V15.9126H17.2177V14.3474H16.1742Z" fill="#F0F0F0"/>
</g>
<defs>
<clipPath id="clip0_6436_61756">
<rect width="24" height="24" fill="white"/>
</clipPath>
</defs>
</svg>
