<svg width="24" height="24" viewBox="0 0 24 24" fill="none" xmlns="http://www.w3.org/2000/svg">
<g clip-path="url(#clip0_6436_62388)">
<path d="M0 12C0 5.37262 5.37262 0 12 0C18.6274 0 24 5.37262 24 12" fill="#D80027"/>
<path d="M16.1735 11.16L14.4679 11.9622L15.3762 13.614L13.5242 13.2597L13.2895 15.1306L11.9996 13.7546L10.7096 15.1306L10.475 13.2597L8.62298 13.6139L9.53118 11.9622L7.82568 11.16L9.53118 10.3577L8.62298 8.70608L10.4749 9.06027L10.7096 7.18948L11.9996 8.56541L13.2896 7.18948L13.5242 9.06027L15.3762 8.70608L14.4681 10.3579L16.1735 11.16Z" fill="#FFDA44"/>
<path d="M15.1305 3.91303H12.7827C12.7827 3.48089 12.4323 3.1304 12.0001 3.1304C11.5679 3.1304 11.2175 3.48084 11.2175 3.91303H8.86963C8.86963 4.34521 9.24613 4.69565 9.67832 4.69565H9.65221C9.65221 5.12784 10.0026 5.47828 10.4348 5.47828C10.4348 5.91046 10.7852 6.2609 11.2175 6.2609H12.7827C13.2148 6.2609 13.5653 5.91051 13.5653 5.47828C13.9974 5.47828 14.3479 5.12788 14.3479 4.69565H14.3218C14.754 4.69565 15.1305 4.34526 15.1305 3.91303Z" fill="#FFDA44"/>
<path d="M24.0002 11.9996C24.0002 18.627 18.6276 23.9996 12.0002 23.9996C5.37287 23.9996 0.000244141 18.627 0.000244141 11.9996C0.521963 11.9996 24.0002 11.9996 24.0002 11.9996Z" fill="#F0F0F0"/>
<path d="M12.0004 24.0005C15.7515 24.0005 19.0999 22.279 21.3005 19.5835C20.9047 19.3137 20.691 18.8775 20.0003 18.8775C19.0003 18.8775 19.0003 19.7918 18.0003 19.7918C17.0004 19.7918 17.0004 18.8775 16.0004 18.8775C15.0004 18.8775 15.0004 19.7918 14.0004 19.7918C13.0004 19.7918 13.0003 18.8775 12.0002 18.8775C11.0003 18.8775 11.0003 19.7918 10.0003 19.7918C9.00048 19.7918 9.00048 18.8775 8.00049 18.8775C7.00041 18.8775 7.00041 19.7918 6.00034 19.7918C5.00026 19.7918 5.00026 18.8775 4.00018 18.8775C3.30952 18.8775 3.09582 19.3136 2.7002 19.5835C4.9007 22.279 8.24935 24.0005 12.0004 24.0005Z" fill="#0052B4"/>
<path d="M21.9999 13.5312C20.9999 13.5312 20.9999 12.6169 19.9998 12.6169C18.9999 12.6169 18.9999 13.5312 17.9999 13.5312C17 13.5312 16.9999 12.6169 16 12.6169C15 12.6169 15 13.5312 14 13.5312C13 13.5312 12.9999 12.6169 11.9998 12.6169C10.9998 12.6169 10.9998 13.5312 9.99991 13.5312C9.00006 13.5312 9.00006 12.6169 8.00008 12.6169C7 12.6169 7 13.5312 5.99992 13.5312C4.99984 13.5312 4.99984 12.6169 3.99977 12.6169C2.99992 12.6169 2.99992 13.5312 1.99994 13.5312C1.00534 13.5312 0.999578 12.6269 0.015625 12.6173C0.0433281 13.1662 0.108859 13.7051 0.207953 14.232C1.00502 14.3492 1.07481 15.1312 1.99998 15.1312C2.99997 15.1312 2.99997 14.2169 3.99981 14.2169C4.99989 14.2169 4.99989 15.1312 5.99997 15.1312C7.00005 15.1312 7.00005 14.2169 8.00012 14.2169C9.00011 14.2169 9.00011 15.1312 9.99995 15.1312C10.9999 15.1312 10.9999 14.2169 11.9999 14.2169C13 14.2169 13 15.1312 14 15.1312C15.0001 15.1312 15.0001 14.2169 16 14.2169C17 14.2169 17 15.1312 18 15.1312C18.9999 15.1312 19 14.2169 19.9999 14.2169C21 14.2169 21 15.1312 21.9999 15.1312C22.9252 15.1312 22.995 14.3492 23.7921 14.2321C23.8912 13.7051 23.9567 13.1662 23.9845 12.6173C23.0004 12.627 22.9945 13.5312 21.9999 13.5312Z" fill="#0052B4"/>
<path d="M20 15.7477C19 15.7477 19 16.6621 18.0001 16.6621C17.0001 16.6621 17.0001 15.7477 16.0002 15.7477C15.0002 15.7477 15.0002 16.6621 14.0001 16.6621C13.0001 16.6621 13.0001 15.7477 12 15.7477C11 15.7477 11 16.6621 10.0001 16.6621C9.00023 16.6621 9.00023 15.7477 8.00024 15.7477C7.00017 15.7477 7.00017 16.6621 6.00009 16.6621C5.00001 16.6621 5.00001 15.7477 3.99993 15.7477C3.00009 15.7477 3.00009 16.6621 2.0001 16.6621C1.28559 16.6621 1.08149 16.1954 0.658447 15.9287C0.940072 16.7424 1.30645 17.5165 1.74768 18.24C1.82442 18.2542 1.90795 18.262 2.0001 18.262C3.00009 18.262 3.00009 17.3478 3.99993 17.3478C5.00001 17.3478 5.00001 18.262 6.00009 18.262C7.00017 18.262 7.00017 17.3478 8.00024 17.3478C9.00023 17.3478 9.00023 18.262 10.0001 18.262C11.0001 18.262 11.0001 17.3478 12 17.3478C13.0001 17.3478 13.0001 18.262 14.0001 18.262C15.0002 18.262 15.0002 17.3478 16.0002 17.3478C17.0002 17.3478 17.0001 18.262 18.0001 18.262C19 18.262 19.0001 17.3478 20 17.3478C21.0001 17.3478 21.0001 18.262 22 18.262C22.0923 18.262 22.1758 18.2542 22.2525 18.24C22.6938 17.5165 23.0601 16.7424 23.3419 15.9288C22.9188 16.1953 22.7146 16.6621 22 16.6621C21.0001 16.6621 21.0001 15.7477 20 15.7477Z" fill="#0052B4"/>
<path d="M23.963 11.051C23.0007 11.0738 22.9874 11.9644 22.0001 11.9644C21.0001 11.9644 21.0001 11.05 20.0001 11.05C19.0001 11.05 19.0001 11.9644 18.0001 11.9644C17.0002 11.9644 17.0002 11.05 16.0002 11.05C15.0002 11.05 15.0002 11.9644 14.0002 11.9644C13.0002 11.9644 13.0001 11.05 12.0001 11.05C11.0001 11.05 11.0001 11.9644 10.0001 11.9644C9.00029 11.9644 9.00029 11.05 8.00031 11.05C7.00023 11.05 7.00023 11.9644 6.00015 11.9644C5.00007 11.9644 5.00007 11.05 3.99999 11.05C3.00015 11.05 3.00015 11.9644 2.00017 11.9644C1.01303 11.9644 0.999666 11.0739 0.037416 11.051C0.0129941 11.3639 0.000244141 11.68 0.000244141 11.9991C0.000244141 12.2177 0.00643164 12.4348 0.0181035 12.6505C0.999807 12.6615 1.00632 13.5643 2.00021 13.5643C3.0002 13.5643 3.0002 12.6501 4.00004 12.6501C5.00012 12.6501 5.00012 13.5643 6.0002 13.5643C7.00028 13.5643 7.00028 12.6501 8.00035 12.6501C9.00034 12.6501 9.00034 13.5643 10.0002 13.5643C11.0002 13.5643 11.0002 12.6501 12.0001 12.6501C13.0002 12.6501 13.0002 13.5643 14.0003 13.5643C15.0003 13.5643 15.0003 12.6501 16.0003 12.6501C17.0003 12.6501 17.0003 13.5643 18.0002 13.5643C19.0001 13.5643 19.0002 12.6501 20.0001 12.6501C21.0002 12.6501 21.0002 13.5643 22.0001 13.5643C22.9941 13.5643 23.0006 12.6615 23.9825 12.6505C23.9941 12.4348 24.0002 12.2177 24.0002 11.9991C24.0002 11.68 23.9875 11.3639 23.963 11.051Z" fill="#F0F0F0"/>
</g>
<defs>
<clipPath id="clip0_6436_62388">
<rect width="24" height="24" fill="white"/>
</clipPath>
</defs>
</svg>
