<svg width="24" height="24" viewBox="0 0 24 24" fill="none" xmlns="http://www.w3.org/2000/svg">
<g clip-path="url(#clip0_6436_61776)">
<path d="M24 12C24 18.6274 18.6274 24 12 24C5.37262 24 0 18.6274 0 12C0 12.0029 12 0.0013125 12 0C18.6274 0 24 5.37262 24 12Z" fill="#0052B4"/>
<path d="M11.9685 12.0004H12.0007C12.0007 11.9896 12.0007 11.9791 12.0007 11.9683C11.99 11.979 11.9793 11.9897 11.9685 12.0004Z" fill="#F0F0F0"/>
<path d="M12.0002 6.26039C12.0002 4.1489 12.0002 2.76539 12.0002 -0.000473022H11.9982C5.3717 0.000651977 0.000244141 5.37276 0.000244141 11.9995H6.2611V8.47401L9.78662 11.9995H11.9682C11.9789 11.9888 11.9896 11.9782 12.0003 11.9674C12.0003 11.159 12.0003 10.4376 12.0003 9.786L8.47468 6.26039H12.0002Z" fill="#F0F0F0"/>
<path d="M17.2173 8.86916C18.3699 8.86916 19.3043 7.93479 19.3043 6.78219C19.3043 5.62959 18.3699 4.69522 17.2173 4.69522C16.0647 4.69522 15.1304 5.62959 15.1304 6.78219C15.1304 7.93479 16.0647 8.86916 17.2173 8.86916Z" fill="#6DA544"/>
<path d="M6.07051 1.56527C4.19368 2.63397 2.63335 4.19425 1.5647 6.07108V12.0001H4.69515V4.69582V4.69572H11.9995C11.9995 3.7084 11.9995 2.7678 11.9995 1.56527H6.07051Z" fill="#D80027"/>
<path d="M11.9991 10.5238L7.73563 6.26042H6.26001V6.26052L11.9991 11.9995H11.9991C11.9991 11.9995 11.9991 10.982 11.9991 10.5238Z" fill="#D80027"/>
<path d="M20.869 6.26042H13.5647V9.39087H20.869V6.26042Z" fill="#D80027"/>
<path d="M13.5652 14.0869V16.1738H14.6632C15.3215 16.819 16.2227 17.2173 17.2174 17.2173C18.212 17.2173 19.1132 16.819 19.7715 16.1738H19.826H20.8695V14.0869H13.5652Z" fill="#FFDA44"/>
<path d="M13.5652 8.86903V11.9995C13.5652 14.7951 17.2174 15.6517 17.2174 15.6517C17.2174 15.6517 20.8695 14.7951 20.8695 11.9995V8.86903H13.5652Z" fill="#338AF3"/>
<path d="M17.2171 10.5403C16.3041 10.5403 16.3041 11.3751 15.3912 11.3751C14.4782 11.3751 14.4782 10.5403 13.5652 10.5403V12.0012C14.4782 12.0012 14.4782 12.836 15.3912 12.836C16.3041 12.836 16.3041 12.0012 17.2171 12.0012C18.1302 12.0012 18.1302 12.836 19.0433 12.836C19.9565 12.836 19.9564 12.0012 20.8695 12.0012V10.5403C19.9564 10.5403 19.9565 11.3751 19.0433 11.3751C18.1302 11.3751 18.1302 10.5403 17.2171 10.5403Z" fill="#F3F3F3"/>
<path d="M17.2171 7.61665C16.3041 7.61665 16.3041 8.45145 15.3912 8.45145C14.4782 8.45145 14.4782 7.61665 13.5652 7.61665V9.07751C14.4782 9.07751 14.4782 9.91231 15.3912 9.91231C16.3041 9.91231 16.3041 9.07751 17.2171 9.07751C18.1302 9.07751 18.1302 9.91231 19.0433 9.91231C19.9565 9.91231 19.9564 9.07751 20.8695 9.07751V7.61665C19.9565 7.61665 19.9565 8.45145 19.0433 8.45145C18.1302 8.45145 18.1302 7.61665 17.2171 7.61665Z" fill="#F3F3F3"/>
</g>
<defs>
<clipPath id="clip0_6436_61776">
<rect width="24" height="24" fill="white"/>
</clipPath>
</defs>
</svg>
