<svg width="24" height="24" viewBox="0 0 24 24" fill="none" xmlns="http://www.w3.org/2000/svg">
<g clip-path="url(#clip0_6436_62468)">
<path d="M24.0002 11.9995C24.0002 18.6269 18.6276 23.9995 12.0002 23.9995C5.37287 23.9995 0.000244141 18.6269 0.000244141 11.9995C0.521963 11.9995 12.0002 10.4343 12.0002 10.4343L24.0002 11.9995Z" fill="#D80027"/>
<path d="M0 12C0 5.37262 5.37262 0 12 0C18.6274 0 24 5.37262 24 12" fill="#0052B4"/>
<path d="M8.86999 8.34738C8.86999 7.48296 8.16921 6.78217 7.30478 6.78217C6.90377 6.78217 6.53828 6.93311 6.2613 7.18103V6.26041H6.78302V5.21692H6.2613V4.69521H5.21782V5.21692H4.6961V6.26041H5.21782V7.18103C4.94083 6.93311 4.57535 6.78217 4.17433 6.78217C3.30991 6.78217 2.60913 7.48296 2.60913 8.34738C2.60913 8.81083 2.81074 9.22708 3.13085 9.51372V10.4343H8.34822V9.51372C8.66842 9.22708 8.86999 8.81083 8.86999 8.34738Z" fill="#FFDA44"/>
</g>
<defs>
<clipPath id="clip0_6436_62468">
<rect width="24" height="24" fill="white"/>
</clipPath>
</defs>
</svg>
