<svg width="24" height="24" viewBox="0 0 24 24" fill="none" xmlns="http://www.w3.org/2000/svg">
<g clip-path="url(#clip0_6436_62442)">
<path d="M12 24C18.6274 24 24 18.6274 24 12C24 5.37258 18.6274 0 12 0C5.37258 0 0 5.37258 0 12C0 18.6274 5.37258 24 12 24Z" fill="#F0F0F0"/>
<path d="M2.74292 4.36309H21.257C20.5732 3.53504 19.7801 2.80074 18.9003 2.18129H5.09965C4.21986 2.80065 3.42678 3.53499 2.74292 4.36309Z" fill="#F0F0F0"/>
<path d="M0 12.0005C0 12.3684 0.0174844 12.732 0.049875 13.0915H23.9501C23.9825 12.732 24 12.3684 24 12.0005C24 11.6327 23.9825 11.2691 23.9501 10.9097H0.049875C0.0174844 11.2691 0 11.6327 0 12.0005Z" fill="#F0F0F0"/>
<path d="M1.30884 17.4546H22.6917C23.0451 16.7634 23.3332 16.0335 23.5484 15.2729H0.452148C0.667258 16.0335 0.955539 16.7635 1.30884 17.4546Z" fill="#F0F0F0"/>
<path d="M5.09965 21.8181H18.9003C19.7801 21.1986 20.5732 20.4643 21.257 19.6363H2.74292C3.42678 20.4642 4.21986 21.1986 5.09965 21.8181Z" fill="#F0F0F0"/>
<path d="M0.452148 8.72786H23.5485C23.3333 7.96717 23.0451 7.23723 22.6918 6.54606H1.30888C0.955586 7.23723 0.667305 7.96717 0.452148 8.72786Z" fill="#F0F0F0"/>
<path d="M5.73853 2.18186H18.8997C16.9478 0.807577 14.568 6.10352e-05 11.9994 6.10352e-05C10.4342 6.10352e-05 7.6904 0.807577 5.73853 2.18186Z" fill="#D80027"/>
<path d="M11.4783 6.54526H22.6914C22.2924 5.76465 21.8104 5.03345 21.257 4.36347H11.4783V6.54526Z" fill="#D80027"/>
<path d="M11.4783 10.9085H23.9501C23.8826 10.1593 23.747 9.42976 23.5482 8.72668H11.4783V10.9085Z" fill="#D80027"/>
<path d="M0.451561 15.2736H23.5478C23.7467 14.5706 23.8823 13.841 23.9498 13.0918H0.0495605C0.117061 13.841 0.252717 14.5706 0.451561 15.2736Z" fill="#D80027"/>
<path d="M2.74272 19.6368H21.2569C21.8102 18.9668 22.2922 18.2356 22.6912 17.4551H1.30835C1.7074 18.2357 2.18937 18.9669 2.74272 19.6368Z" fill="#D80027"/>
<path d="M11.9994 24.0005C14.5681 24.0005 16.9479 23.1929 18.8998 21.8187H5.09912C7.051 23.1929 9.43084 24.0005 11.9994 24.0005Z" fill="#D80027"/>
<path d="M0.451758 8.72685C0.252914 9.42998 0.117305 10.1595 0.0498047 10.9087H11.9999V-0.000427246C6.50711 -0.000427246 1.87638 3.69014 0.451758 8.72685Z" fill="#0052B4"/>
<path d="M7.14357 3.13052L7.92052 5.52185H10.4352L8.40089 6.99991L9.1778 9.39138L7.14357 7.91341L5.10924 9.39138L5.88633 6.99991L3.85205 5.52185H6.36657L7.14357 3.13052Z" fill="#F0F0F0"/>
</g>
<defs>
<clipPath id="clip0_6436_62442">
<rect width="24" height="24" fill="white"/>
</clipPath>
</defs>
</svg>
