<svg width="24" height="24" viewBox="0 0 24 24" fill="none" xmlns="http://www.w3.org/2000/svg">
<g clip-path="url(#clip0_6436_62870)">
<path d="M12 24C18.6274 24 24 18.6274 24 12C24 5.37258 18.6274 0 12 0C5.37258 0 0 5.37258 0 12C0 18.6274 5.37258 24 12 24Z" fill="#FFDA44"/>
<path d="M13.8249 23.8624C15.7766 23.5646 17.5732 22.7961 19.0963 21.6772L12 12.0003L13.8249 23.8624Z" fill="#D80027"/>
<path d="M10.1752 0.137711C8.22359 0.435461 6.42706 1.20402 4.90381 2.32288L12.0002 11.9998L10.1752 0.137711Z" fill="#D80027"/>
<path d="M4.90381 21.6772C6.42696 22.796 8.2235 23.5646 10.1751 23.8624L12.0002 12.0003L4.90381 21.6772Z" fill="#D80027"/>
<path d="M2.32336 4.90239C1.20445 6.42564 0.43598 8.22212 0.138184 10.1738L12.0002 11.9988L2.32336 4.90239Z" fill="#D80027"/>
<path d="M0.138184 13.8253C0.435934 15.777 1.2045 17.5735 2.3234 19.0967L12.0002 12.0003L0.138184 13.8253Z" fill="#D80027"/>
<path d="M23.862 10.174C23.5642 8.22232 22.7957 6.42579 21.6768 4.90258L12 11.9989L23.862 10.174Z" fill="#D80027"/>
<path d="M19.0963 2.32284C17.5731 1.20398 15.7766 0.435461 13.8249 0.137711L12 11.9998L19.0963 2.32284Z" fill="#D80027"/>
<path d="M21.6769 19.0967C22.7958 17.5735 23.5643 15.7769 23.8621 13.8253L12 12.0003L21.6769 19.0967Z" fill="#D80027"/>
<path d="M12.0001 16.1743C14.3052 16.1743 16.174 14.3056 16.174 12.0004C16.174 9.69525 14.3052 7.82654 12.0001 7.82654C9.69489 7.82654 7.82617 9.69525 7.82617 12.0004C7.82617 14.3056 9.69489 16.1743 12.0001 16.1743Z" fill="#D80027"/>
<path d="M12.0001 15.1297C13.729 15.1297 15.1305 13.7281 15.1305 11.9992C15.1305 10.2703 13.729 8.86878 12.0001 8.86878C10.2712 8.86878 8.86963 10.2703 8.86963 11.9992C8.86963 13.7281 10.2712 15.1297 12.0001 15.1297Z" fill="#FFDA44"/>
</g>
<defs>
<clipPath id="clip0_6436_62870">
<rect width="24" height="24" fill="white"/>
</clipPath>
</defs>
</svg>
