<svg width="24" height="24" viewBox="0 0 24 24" fill="none" xmlns="http://www.w3.org/2000/svg">
<g clip-path="url(#clip0_6436_62751)">
<path d="M12 24C18.6274 24 24 18.6274 24 12C24 5.37258 18.6274 0 12 0C5.37258 0 0 5.37258 0 12C0 18.6274 5.37258 24 12 24Z" fill="#338AF3"/>
<path d="M11.6213 19.5561C11.2978 19.5405 11.0302 19.3302 10.9253 19.0448C10.7401 19.2864 10.4218 19.408 10.1083 19.3271C9.79418 19.2462 9.57457 18.9864 9.52915 18.6848C9.29852 18.8841 8.96252 18.9383 8.67195 18.796C8.38081 18.653 8.21806 18.354 8.23474 18.0498C7.9692 18.199 7.62902 18.1844 7.37285 17.9861C7.1172 17.7879 7.01754 17.4628 7.09474 17.168C6.80463 17.2609 6.47492 17.1785 6.2636 16.9327C6.05229 16.6875 6.0199 16.3489 6.15457 16.076C5.85195 16.1083 5.5452 15.9612 5.3876 15.6785C5.22949 15.3957 5.26606 15.0571 5.45332 14.8165C5.15018 14.7873 4.87887 14.5812 4.78184 14.2723C4.68429 13.9635 4.78863 13.639 5.02081 13.4412C4.72967 13.3514 4.50635 13.0947 4.47349 12.7728C4.44063 12.451 4.6076 12.1551 4.87418 12.008C4.60756 11.8619 4.43956 11.5661 4.47138 11.2447C4.47138 11.2447 4.47138 11.2447 4.4719 11.2447C4.50373 10.9222 4.72704 10.6651 5.01762 10.5742C4.78545 10.377 4.68007 10.053 4.77659 9.74411C4.8731 9.43474 5.14385 9.22811 5.44704 9.19783C5.25973 8.95783 5.22218 8.61916 5.37921 8.33594C5.53624 8.05315 5.84304 7.90549 6.14618 7.93732C6.01052 7.66446 6.04235 7.32583 6.25315 7.0796C6.46343 6.83388 6.79315 6.75091 7.08377 6.84274C7.00549 6.54846 7.10463 6.22291 7.36029 6.02416C7.61543 5.82532 7.9556 5.81018 8.22115 5.95835C8.20395 5.65422 8.36618 5.35521 8.65681 5.21172C8.94692 5.06875 9.28343 5.122 9.51452 5.32127C9.55887 5.01977 9.77852 4.75891 10.0921 4.67744C10.4051 4.59607 10.7234 4.71658 10.9091 4.95761C11.014 4.67224 11.2811 4.46144 11.6046 4.44527C11.9276 4.42863 12.2145 4.61013 12.3481 4.88308C12.5077 4.62429 12.8114 4.47091 13.1312 4.51943C13.4516 4.56743 13.6973 4.80321 13.7735 5.09805C13.9822 4.87572 14.3109 4.7876 14.6145 4.89921C14.9187 5.01138 15.1117 5.29207 15.1264 5.59675C15.3752 5.42149 15.7154 5.4011 15.9904 5.57224C16.2653 5.74286 16.3973 6.05641 16.3504 6.35744C16.6295 6.2359 16.9665 6.28441 17.2013 6.50664C17.4361 6.72944 17.5029 7.06282 17.3965 7.34819C17.6944 7.28505 18.0147 7.39985 18.2005 7.66539C18.3862 7.93043 18.3846 8.2706 18.2234 8.52888C18.5276 8.52677 18.8182 8.70419 18.9471 9.00105C19.0754 9.29843 19.005 9.63185 18.7947 9.85254C19.0937 9.91202 19.3426 10.1442 19.4083 10.4614C19.4735 10.7786 19.3373 11.0901 19.0874 11.2638C19.3671 11.3823 19.5643 11.6593 19.5648 11.9828C19.5648 11.9864 19.5648 11.9896 19.5648 11.9933C19.5648 11.9954 19.5648 11.998 19.5648 12.0001C19.5648 12.3235 19.3686 12.6011 19.089 12.7206C19.3394 12.8933 19.4766 13.2048 19.4114 13.522C19.3467 13.8392 19.0984 14.0719 18.7994 14.1324C19.0102 14.3526 19.0817 14.6854 18.9539 14.9834C18.8261 15.2808 18.5354 15.4587 18.2307 15.4571C18.3925 15.7154 18.3951 16.0556 18.2099 16.3211C18.0247 16.5867 17.7049 16.7025 17.4069 16.6399C17.5139 16.9248 17.4476 17.2587 17.2134 17.482C16.9786 17.7048 16.6421 17.7538 16.3629 17.6333C16.4104 17.9338 16.2789 18.2479 16.0045 18.4196C15.73 18.5913 15.3898 18.5714 15.1405 18.3966C15.1264 18.7013 14.9344 18.9826 14.6307 19.0953C14.6307 19.0953 14.6307 19.0953 14.6302 19.0953C14.3266 19.2074 13.9979 19.1198 13.7887 18.8981C13.7135 19.1934 13.4683 19.4297 13.148 19.4788C12.8282 19.5273 12.524 19.375 12.3638 19.1162C12.2365 19.3786 11.9673 19.557 11.6605 19.557C11.6474 19.5572 11.6344 19.5567 11.6213 19.5561Z" fill="#F3F3F3"/>
<path d="M12.0003 17.2183C14.8818 17.2183 17.2177 14.8824 17.2177 12.0009C17.2177 9.11941 14.8818 6.78351 12.0003 6.78351C9.11886 6.78351 6.78296 9.11941 6.78296 12.0009C6.78296 14.8824 9.11886 17.2183 12.0003 17.2183Z" fill="#338AF3"/>
<path d="M13.1418 10.2289C13.3981 10.0388 13.565 9.73488 13.565 9.39119V8.86947C13.565 8.29315 13.0978 7.82599 12.5215 7.82599H11.478C10.9017 7.82599 10.4346 8.29315 10.4346 8.86947V9.39119C10.4346 9.73488 10.6014 10.0388 10.8577 10.2289L9.91284 19.8259C9.91284 19.8259 10.4346 20.3478 11.9998 20.3478C13.5651 20.3478 14.0868 19.8259 14.0868 19.8259L13.1418 10.2289Z" fill="#BDBCC1"/>
<path d="M12.0002 7.82599L12.9067 10.6159H15.8404L13.4671 12.3403L14.3735 15.1303L12.0002 13.406L9.62687 15.1303L10.5335 12.3403L8.16016 10.6159H11.0937L12.0002 7.82599Z" fill="#F0F0F0"/>
</g>
<defs>
<clipPath id="clip0_6436_62751">
<rect width="24" height="24" fill="white"/>
</clipPath>
</defs>
</svg>
