<svg width="24" height="24" viewBox="0 0 24 24" fill="none" xmlns="http://www.w3.org/2000/svg">
<g clip-path="url(#clip0_6436_62649)">
<path d="M12 24C18.6274 24 24 18.6274 24 12C24 5.37258 18.6274 0 12 0C5.37258 0 0 5.37258 0 12C0 18.6274 5.37258 24 12 24Z" fill="#F0F0F0"/>
<path d="M3.51451 20.4849C4.0179 20.9883 4.55499 21.4372 5.11838 21.8325L21.8326 5.11828C21.4374 4.55489 20.9884 4.01779 20.485 3.5144C19.9816 3.01101 19.4445 2.56214 18.8811 2.16689L2.16699 18.8811C2.5622 19.4444 3.01112 19.9815 3.51451 20.4849Z" fill="#A2001D"/>
<path d="M3.51501 3.51477C-0.270799 7.30058 -0.99755 12.9861 1.33322 17.5022L17.5024 1.33306C12.9863 -0.997701 7.30073 -0.270858 3.51501 3.51477Z" fill="#0052B4"/>
<path d="M20.4859 20.4847C24.2716 16.699 24.9984 11.0134 22.6677 6.49733L6.49854 22.6665C11.0145 24.9972 16.7001 24.2705 20.4859 20.4847Z" fill="#496E2D"/>
<path d="M9.91332 6.78185L8.56866 7.41433L9.28472 8.71661L7.82462 8.43733L7.63955 9.91226L6.62255 8.82743L5.60551 9.91226L5.42054 8.43733L3.96038 8.71657L4.6764 7.41429L3.33179 6.78185L4.67644 6.14932L3.96038 4.84713L5.42049 5.12641L5.60555 3.65139L6.62255 4.73627L7.6396 3.65139L7.82462 5.12641L9.28472 4.84713L8.56876 6.14936L9.91332 6.78185Z" fill="#FFDA44"/>
</g>
<defs>
<clipPath id="clip0_6436_62649">
<rect width="24" height="24" fill="white"/>
</clipPath>
</defs>
</svg>
