<svg width="24" height="24" viewBox="0 0 24 24" fill="none" xmlns="http://www.w3.org/2000/svg">
<g clip-path="url(#clip0_6436_62656)">
<path d="M12 24C18.6274 24 24 18.6274 24 12C24 5.37258 18.6274 0 12 0C5.37258 0 0 5.37258 0 12C0 18.6274 5.37258 24 12 24Z" fill="#0052B4"/>
<path d="M12 24C18.6274 24 24 18.6274 24 12C24 5.37258 18.6274 0 12 0C5.37258 0 0 5.37258 0 12C0 18.6274 5.37258 24 12 24Z" fill="#FFDA44"/>
<path d="M12.0009 -0.000526428C5.72512 -0.000526428 0.575522 4.81733 0.0466309 10.956H23.9553C23.4263 4.81733 18.2767 -0.000526428 12.0009 -0.000526428Z" fill="#0052B4"/>
<path d="M12 24.0001C18.2758 24.0001 23.4254 19.1822 23.9543 13.0436H0.0456543C0.574545 19.1822 5.72414 24.0001 12 24.0001Z" fill="#0052B4"/>
<path d="M9.91312 16.1745L8.56847 16.8071L9.28448 18.1093L7.82437 17.83L7.63936 19.305L6.62231 18.2202L5.60531 19.305L5.42029 17.83L3.96014 18.1092L4.6762 16.807L3.33154 16.1745L4.67625 15.542L3.96014 14.2398L5.42025 14.5191L5.60536 13.0441L6.62231 14.1289L7.6394 13.0441L7.82437 14.5191L9.28453 14.2398L8.56851 15.5421L9.91312 16.1745Z" fill="#F0F0F0"/>
</g>
<defs>
<clipPath id="clip0_6436_62656">
<rect width="24" height="24" fill="white"/>
</clipPath>
</defs>
</svg>
