<svg width="24" height="24" viewBox="0 0 24 24" fill="none" xmlns="http://www.w3.org/2000/svg">
<g clip-path="url(#clip0_6436_62802)">
<path d="M20.4853 20.4857C15.799 25.172 8.20108 25.172 3.51471 20.4857C-1.17158 15.7994 -1.17158 8.20139 3.51475 3.51506C8.20103 -1.17121 15.0611 -0.433356 19.7474 4.25297C24.4337 8.93925 25.1716 15.7994 20.4853 20.4857Z" fill="black"/>
<path d="M3.51465 3.51464C8.20093 -1.17164 15.7989 -1.17155 20.4852 3.51469C25.1715 8.20097 25.1715 15.7989 20.4852 20.4853" fill="#A2001D"/>
<path d="M9.17128 16.1739L9.36553 16.7717H9.99417L9.48558 17.1412L9.67987 17.7391L9.17128 17.3696L8.66269 17.7391L8.85694 17.1412L8.34839 16.7717H8.97698L9.17128 16.1739Z" fill="#F0F0F0"/>
<path d="M7.56483 10.435L7.88869 11.4315H8.93635L8.08871 12.0473L8.41247 13.0437L7.56483 12.4278L6.71724 13.0437L7.04105 12.0473L6.19336 11.4315H7.24111L7.56483 10.435Z" fill="#F0F0F0"/>
<path d="M7.56483 17.7387L7.8886 18.7352H8.93635L8.08861 19.351L8.41247 20.3474L7.56483 19.7315L6.71724 20.3474L7.04095 19.351L6.19336 18.7352H7.24097L7.56483 17.7387Z" fill="#F0F0F0"/>
<path d="M10.6287 13.0439L10.9526 14.0404H12.0003L11.1526 14.6561L11.4764 15.6526L10.6287 15.0367L9.78115 15.6526L10.105 14.6561L9.25732 14.0404H10.305L10.6287 13.0439Z" fill="#F0F0F0"/>
<path d="M4.50209 13.0439L4.82595 14.0404H5.87356L5.02596 14.6561L5.34968 15.6526L4.50209 15.0367L3.65444 15.6526L3.9783 14.6561L3.13062 14.0404H4.17832L4.50209 13.0439Z" fill="#F0F0F0"/>
<path d="M20.0881 8.8863C19.5518 8.35 18.855 8.03317 18.1062 7.97875L20.3477 6.23533C19.455 5.3426 18.2585 4.93942 17.0909 5.02469C16.9511 4.52238 16.6846 4.04791 16.2896 3.65289L15.4042 5.42374C15.3461 5.31789 15.2726 5.21828 15.1828 5.12861C14.6734 4.61922 13.8476 4.61922 13.3382 5.12861C12.8289 5.638 12.8288 6.46385 13.3382 6.97324C13.4279 7.06291 13.5275 7.13646 13.6334 7.19458L11.8625 8.08C12.2577 8.47516 12.7325 8.74183 13.235 8.88152C13.1495 10.0491 13.5523 11.2454 14.445 12.1382L16.4035 9.62017C16.5508 9.4751 16.7454 9.39499 16.9524 9.39499C17.1614 9.39499 17.3579 9.47636 17.5057 9.62425C17.6536 9.77205 17.735 9.9686 17.735 10.1776C17.735 10.3867 17.6536 10.5832 17.5057 10.731L18.2436 11.4689C18.5885 11.124 18.7785 10.6654 18.7785 10.1777C18.7785 9.77857 18.6512 9.39916 18.4161 9.08547C18.7586 9.17692 19.0823 9.35608 19.3504 9.62425C20.1642 10.438 20.1642 11.762 19.3504 12.5756L20.0883 13.3135C20.6795 12.7223 21.0052 11.9362 21.0052 11.1C21.005 10.2637 20.6794 9.47758 20.0881 8.8863Z" fill="#FFDA44"/>
</g>
<defs>
<clipPath id="clip0_6436_62802">
<rect width="24" height="24" fill="white"/>
</clipPath>
</defs>
</svg>
