<svg width="24" height="24" viewBox="0 0 24 24" fill="none" xmlns="http://www.w3.org/2000/svg">
<g clip-path="url(#clip0_6436_62776)">
<path d="M12 24C18.6274 24 24 18.6274 24 12C24 5.37258 18.6274 0 12 0C5.37258 0 0 5.37258 0 12C0 18.6274 5.37258 24 12 24Z" fill="#F0F0F0"/>
<path d="M0.000244141 12.0002C0.000244141 16.5487 2.53098 20.5059 6.26111 22.5411V1.45929C2.53098 3.49455 0.000244141 7.4517 0.000244141 12.0002Z" fill="#F0F0F0"/>
<path d="M11.9996 0.000793457C9.92073 0.000793457 7.96539 0.529684 6.2605 1.45987V22.5417C7.96539 23.4719 9.92073 24.0008 11.9996 24.0008C18.627 24.0008 23.9996 18.6282 23.9996 12.0008C23.9996 5.37342 18.627 0.000793457 11.9996 0.000793457Z" fill="#496E2D"/>
<path d="M17.1309 13.9861C15.6128 15.083 13.4928 14.7415 12.396 13.2234C11.299 11.7053 11.6405 9.58533 13.1586 8.48846C13.632 8.14646 14.1638 7.94428 14.7049 7.87402C13.6639 7.71835 12.5635 7.95291 11.6431 8.61802C9.77461 9.96811 9.35428 12.5772 10.7043 14.4458C12.0544 16.3142 14.6635 16.7345 16.5321 15.3843C17.4526 14.7192 18.0208 13.7483 18.1998 12.711C17.9633 13.2025 17.6043 13.644 17.1309 13.9861Z" fill="#F0F0F0"/>
<path d="M17.0661 7.82721L17.9213 8.74882L19.0621 8.22044L18.4498 9.31844L19.3049 10.2401L18.0713 9.9971L17.4591 11.0952L17.309 9.84691L16.0754 9.60386L17.2162 9.07549L17.0661 7.82721Z" fill="#F0F0F0"/>
</g>
<defs>
<clipPath id="clip0_6436_62776">
<rect width="24" height="24" fill="white"/>
</clipPath>
</defs>
</svg>
