<svg width="24" height="24" viewBox="0 0 24 24" fill="none" xmlns="http://www.w3.org/2000/svg">
<g clip-path="url(#clip0_6436_63058)">
<path d="M20.4861 20.4851C24.9866 15.9846 25.1643 8.79934 21.0211 4.08565L12.0005 11.9994L4.08667 21.0201C8.80036 25.1633 15.9855 24.9856 20.4861 20.4851Z" fill="#496E2D"/>
<path d="M3.51487 3.51438C8.01537 -0.98613 15.2006 -1.16383 19.9143 2.97939L12.0004 12.0001L2.97993 19.9138C-1.16334 15.2001 -0.985595 8.01489 3.51487 3.51438Z" fill="#0052B4"/>
<path d="M19.9139 2.98017L2.97949 19.9146C3.15068 20.1093 3.32843 20.3004 3.51448 20.4864C3.70048 20.6724 3.89158 20.8501 4.0864 21.0214L21.0207 4.08698C20.8495 3.89217 20.6717 3.70111 20.4856 3.51506C20.2997 3.32915 20.1086 3.15136 19.9139 2.98017Z" fill="#FFDA44"/>
<path d="M5.05692 4.17441L5.316 4.97161H6.15417L5.47607 5.46422L5.73506 6.26142L5.05692 5.76872L4.37878 6.26142L4.63786 5.46422L3.95972 4.97161H4.79793L5.05692 4.17441Z" fill="#F0F0F0"/>
<path d="M9.33768 4.1736L9.59676 4.9708H10.4349L9.75679 5.46341L10.0158 6.26061L9.33768 5.76791L8.65954 6.26061L8.91862 5.46341L8.24048 4.9708H9.07865L9.33768 4.1736Z" fill="#F0F0F0"/>
<path d="M5.05643 8.34778L5.31551 9.14498H6.15368L5.47559 9.63763L5.73457 10.4348L5.05643 9.94213L4.37829 10.4348L4.63737 9.63763L3.95923 9.14498H4.79745L5.05643 8.34778Z" fill="#F0F0F0"/>
<path d="M9.33768 8.34778L9.59676 9.14498H10.4349L9.75679 9.63763L10.0158 10.4348L9.33768 9.94213L8.65954 10.4348L8.91862 9.63763L8.24048 9.14498H9.07865L9.33768 8.34778Z" fill="#F0F0F0"/>
<path d="M7.1971 6.26167L7.45618 7.05887H8.2943L7.61621 7.55153L7.87524 8.34873L7.1971 7.85603L6.51896 8.34873L6.77799 7.55153L6.09985 7.05887H6.93807L7.1971 6.26167Z" fill="#F0F0F0"/>
</g>
<defs>
<clipPath id="clip0_6436_63058">
<rect width="24" height="24" fill="white"/>
</clipPath>
</defs>
</svg>
