<svg width="24" height="24" viewBox="0 0 24 24" fill="none" xmlns="http://www.w3.org/2000/svg">
<g clip-path="url(#clip0_6436_63000)">
<path d="M23.2534 16.1743C23.7358 14.8743 23.9998 13.4682 23.9998 12.0004C23.9998 10.5325 23.7358 9.12649 23.2534 7.8265L11.9998 6.78302L0.746147 7.8265C0.263756 9.12649 -0.000244141 10.5325 -0.000244141 12.0004C-0.000244141 13.4682 0.263756 14.8743 0.746147 16.1743L11.9998 17.2178L23.2534 16.1743Z" fill="#F0F0F0"/>
<path d="M11.9997 24.0006C17.1593 24.0006 21.5578 20.7441 23.2533 16.1745H0.746094C2.44166 20.7441 6.84012 24.0006 11.9997 24.0006Z" fill="#338AF3"/>
<path d="M12 0.00012207C6.84037 0.00012207 2.4419 3.25662 0.746338 7.82623H23.2536C21.5581 3.25662 17.1595 0.00012207 12 0.00012207Z" fill="#6DA544"/>
</g>
<defs>
<clipPath id="clip0_6436_63000">
<rect width="24" height="24" fill="white"/>
</clipPath>
</defs>
</svg>
