<svg width="24" height="24" viewBox="0 0 24 24" fill="none" xmlns="http://www.w3.org/2000/svg">
<g clip-path="url(#clip0_6436_63104)">
<path d="M12 24C18.6274 24 24 18.6274 24 12C24 5.37258 18.6274 0 12 0C5.37258 0 0 5.37258 0 12C0 18.6274 5.37258 24 12 24Z" fill="#F0F0F0"/>
<path d="M23.0636 7.34698C21.2463 3.03022 16.9773 -0.000816345 11.9998 -0.000816345C8.686 -0.000816345 5.68633 1.34257 3.51489 3.51429L6.52005 7.34698H23.0636Z" fill="black"/>
<path d="M6.55413 16.6076L3.51489 20.4837C5.68633 22.6554 8.686 23.9988 11.9998 23.9988C16.9941 23.9988 21.2753 20.9475 23.0822 16.6076H6.55413Z" fill="#496E2D"/>
<path d="M2.60889 8.82608V15.1304H23.5868C23.856 14.1324 24.0002 13.0831 24.0002 12C24.0002 10.9011 23.8522 9.83708 23.5754 8.82608H2.60889Z" fill="#A2001D"/>
<path d="M3.51447 3.51462C-1.17182 8.2009 -1.17182 15.7989 3.51447 20.4852C5.45102 18.5487 7.3135 16.6862 11.9998 11.9999L3.51447 3.51462Z" fill="#0052B4"/>
<path d="M3.9084 9.01646L5.37301 11.0603L7.76964 10.2988L6.2785 12.3235L7.74311 14.3673L5.3568 13.5748L3.86561 15.5995L3.88201 13.0849L1.49561 12.2923L3.89204 11.5309L3.9084 9.01646Z" fill="#FFDA44"/>
</g>
<defs>
<clipPath id="clip0_6436_63104">
<rect width="24" height="24" fill="white"/>
</clipPath>
</defs>
</svg>
