<svg width="24" height="24" viewBox="0 0 24 24" fill="none" xmlns="http://www.w3.org/2000/svg">
<g clip-path="url(#clip0_6436_63165)">
<path d="M22.809 17.2165C23.5719 15.639 23.9998 13.869 23.9998 11.9992C23.9998 10.1293 23.5719 8.35936 22.809 6.78178L11.9998 6.26001L1.19047 6.78173C0.427631 8.35936 -0.000244141 10.1293 -0.000244141 11.9992C-0.000244141 13.869 0.427631 15.639 1.19047 17.2165L11.9998 17.7383L22.809 17.2165Z" fill="#FFDA44"/>
<path d="M12 0.000305176C7.24242 0.000305176 3.13167 2.76898 1.19067 6.78293H22.8092C20.8682 2.76898 16.7574 0.000305176 12 0.000305176Z" fill="black"/>
<path d="M12 23.9994C7.24242 23.9994 3.13167 21.2307 1.19067 17.2167H22.8092C20.8682 21.2307 16.7574 23.9994 12 23.9994Z" fill="#0052B4"/>
<path d="M23.4331 8.34784H0.566428C0.198834 9.49951 -0.000244141 10.7265 -0.000244141 12C-0.000244141 13.2736 0.198834 14.5005 0.566428 15.6522H23.433C23.8007 14.5005 23.9998 13.2736 23.9998 12C23.9998 10.7265 23.8007 9.49951 23.4331 8.34784Z" fill="#A2001D"/>
<path d="M19.826 11.4791H4.17383V12.5226H19.826V11.4791Z" fill="#FFDA44"/>
<path d="M17.739 9.39117H6.26074V10.4347H17.739V9.39117Z" fill="#FFDA44"/>
<path d="M17.8135 11.9995C17.8135 11.9995 15.1302 15.13 11.9998 15.13C8.86943 15.13 8.86938 11.9995 8.86938 11.9995C8.86938 11.9995 8.86939 8.86908 11.9998 8.86908C15.1303 8.86908 17.8135 11.9995 17.8135 11.9995Z" fill="#F0F0F0"/>
<path d="M11.9995 15.13C8.86901 15.13 6.18579 11.9995 6.18579 11.9995C6.18579 11.9995 8.86901 8.86908 11.9995 8.86908" fill="black"/>
<path d="M10.9568 10.957H9.91333V13.0439H10.9568V10.957Z" fill="#F0F0F0"/>
<path d="M14.0867 10.957H13.0432V13.0439H14.0867V10.957Z" fill="black"/>
<path d="M4.17386 13.0445C4.75016 13.0445 5.21734 12.5773 5.21734 12.001C5.21734 11.4247 4.75016 10.9575 4.17386 10.9575C3.59756 10.9575 3.13037 11.4247 3.13037 12.001C3.13037 12.5773 3.59756 13.0445 4.17386 13.0445Z" fill="#0052B4"/>
<path d="M19.8264 13.0441C20.4027 13.0441 20.8699 12.5769 20.8699 12.0006C20.8699 11.4243 20.4027 10.9572 19.8264 10.9572C19.2501 10.9572 18.783 11.4243 18.783 12.0006C18.783 12.5769 19.2501 13.0441 19.8264 13.0441Z" fill="#0052B4"/>
</g>
<defs>
<clipPath id="clip0_6436_63165">
<rect width="24" height="24" fill="white"/>
</clipPath>
</defs>
</svg>
