<svg width="24" height="24" viewBox="0 0 24 24" fill="none" xmlns="http://www.w3.org/2000/svg">
<g clip-path="url(#clip0_6436_63244)">
<path d="M12 24C18.6274 24 24 18.6274 24 12C24 5.37258 18.6274 0 12 0C5.37258 0 0 5.37258 0 12C0 18.6274 5.37258 24 12 24Z" fill="#FFDA44"/>
<path d="M19.3043 5.73914C19.1967 6.25641 19.1478 6.80733 19.1478 7.35652C19.1478 10.5222 21.035 13.2621 23.7394 14.4955C23.9097 13.6904 24 12.8558 24 12C24 5.37262 18.6274 0 12 0C5.37262 0 0 5.37262 0 12C0 18.6274 5.37262 24 12 24C16.1101 24 19.7371 21.9332 21.8998 18.7826H6.78263V17.2174H22.8093C22.9733 16.8782 23.1215 16.53 23.2537 16.1739H6.78263L19.3043 5.73914Z" fill="#0052B4"/>
<path d="M8.81547 6.26117L9.0745 7.05833H9.91263L9.23458 7.55103L9.49361 8.34814L8.81547 7.85553L8.13742 8.34814L8.3964 7.55103L7.71826 7.05833H8.55644L8.81547 6.26117Z" fill="#F0F0F0"/>
<path d="M5.41122 12.0001L5.73503 12.9966H6.78269L5.93505 13.6123L6.25886 14.6088L5.41122 13.9929L4.56362 14.6088L4.88739 13.6123L4.03979 12.9966H5.08745L5.41122 12.0001Z" fill="#F0F0F0"/>
<path d="M5.41122 3.65247L5.73503 4.64898H6.78269L5.93505 5.26468L6.25886 6.26115L5.41122 5.64531L4.56362 6.26115L4.88739 5.26468L4.03979 4.64898H5.08745L5.41122 3.65247Z" fill="#F0F0F0"/>
<path d="M2.80233 8.3475L3.12614 9.34402H4.17375L3.32616 9.95972L3.64997 10.9562L2.80233 10.3403L1.95474 10.9562L2.2785 9.95972L1.43091 9.34402H2.47852L2.80233 8.3475Z" fill="#F0F0F0"/>
</g>
<defs>
<clipPath id="clip0_6436_63244">
<rect width="24" height="24" fill="white"/>
</clipPath>
</defs>
</svg>
