<svg width="24" height="24" viewBox="0 0 24 24" fill="none" xmlns="http://www.w3.org/2000/svg">
<g clip-path="url(#clip0_6436_62020)">
<path d="M12 24C18.6274 24 24 18.6274 24 12C24 5.37258 18.6274 0 12 0C5.37258 0 0 5.37258 0 12C0 18.6274 5.37258 24 12 24Z" fill="#FFDA44"/>
<path d="M11.9998 -0.000305176C9.06185 -0.000305176 6.37094 1.05612 4.28491 2.8091L17.2172 11.9997L4.28491 21.1903C6.37094 22.9433 9.06185 23.9997 11.9998 23.9997C18.6272 23.9997 23.9998 18.6271 23.9998 11.9997C23.9998 5.37232 18.6272 -0.000305176 11.9998 -0.000305176Z" fill="#D80027"/>
<path d="M3.51471 3.5155C-1.17157 8.20178 -1.17157 15.7998 3.51471 20.4861C5.45126 18.5496 7.31375 16.6871 12 12.0008L3.51471 3.5155Z" fill="black"/>
<path d="M3.32684 9.25146L5.15309 10.9798L7.36128 9.77684L6.28198 12.0479L8.10828 13.7763L5.61481 13.4516L4.53537 15.7226L4.07379 13.2508L1.58032 12.926L3.78842 11.7231L3.32684 9.25146Z" fill="#F0F0F0"/>
</g>
<defs>
<clipPath id="clip0_6436_62020">
<rect width="24" height="24" fill="white"/>
</clipPath>
</defs>
</svg>
