<svg width="24" height="24" viewBox="0 0 24 24" fill="none" xmlns="http://www.w3.org/2000/svg">
<g clip-path="url(#clip0_6436_63259)">
<path d="M6.49763 1.33195C5.42335 1.88644 4.41493 2.61324 3.51436 3.5138C2.61375 4.41441 1.88696 5.42283 1.33252 6.49711L9.04847 14.951L17.5023 22.6669C18.5767 22.1124 19.5851 21.3856 20.4856 20.4851C21.3863 19.5845 22.113 18.5761 22.6675 17.5018L14.9515 9.04791L6.49763 1.33195Z" fill="#F0F0F0"/>
<path d="M20.4856 20.486C20.989 19.9826 21.438 19.4454 21.8332 18.882L5.11828 2.16707C4.55489 2.56227 4.01775 3.01124 3.51436 3.51463C3.01097 4.01802 2.562 4.55516 2.16675 5.1186L18.8817 21.8335C19.445 21.4383 19.9822 20.9894 20.4856 20.486Z" fill="black"/>
<path d="M3.51407 20.4865C7.30002 24.2725 12.9858 24.9992 17.502 22.6683L1.33227 6.49852C-0.998592 11.0147 -0.271701 16.7006 3.51407 20.4865Z" fill="#D80027"/>
<path d="M20.485 3.5146C16.6991 -0.271308 11.0133 -0.998058 6.49707 1.33271L22.6668 17.5026C24.9977 12.9864 24.271 7.3005 20.485 3.5146Z" fill="#D80027"/>
</g>
<defs>
<clipPath id="clip0_6436_63259">
<rect width="24" height="24" fill="white"/>
</clipPath>
</defs>
</svg>
