<svg width="24" height="24" viewBox="0 0 24 24" fill="none" xmlns="http://www.w3.org/2000/svg">
<g clip-path="url(#clip0_6436_63323)">
<path d="M24 12C24 18.6274 18.6274 24 12 24C5.37263 24 0 18.6274 0 12C0 12.0029 12 0.0013125 12 0C18.6274 0 24 5.37262 24 12Z" fill="#338AF3"/>
<path d="M5.73926 12.0011H9.78654L6.26098 7.82723L5.73926 9.39244V12.0011Z" fill="#0052B4"/>
<path d="M12.0001 9.78668L7.82617 5.73936H12.0001L12.0001 9.78668Z" fill="#0052B4"/>
<path d="M11.9683 11.9996H12.0004C12.0004 11.9888 12.0004 11.9783 12.0004 11.9674C11.9897 11.9782 11.979 11.9889 11.9683 11.9996Z" fill="#F0F0F0"/>
<path d="M12.0003 6.26116C12.0003 4.14968 12.0003 2.76612 12.0003 0.000305176H11.9983C5.37174 0.00143018 0.000244141 5.37354 0.000244141 12.0003H6.26115V8.47479L9.78666 12.0003H11.9682C11.9789 11.9896 11.9896 11.9789 12.0003 11.9682C12.0003 11.1597 12.0003 10.4384 12.0003 9.78677L8.47468 6.26116H12.0003Z" fill="#F0F0F0"/>
<path d="M6.07124 1.56538C4.19441 2.63409 2.63413 4.19437 1.56543 6.0712V12.0002H4.69588V4.69593V4.69584H12.0002C12.0002 3.70851 12.0002 2.76792 12.0002 1.56538H6.07124Z" fill="#D80027"/>
<path d="M12.0004 10.5241L7.73686 6.26065H6.26123V6.26074L12.0003 11.9997H12.0004C12.0004 11.9997 12.0004 10.9822 12.0004 10.5241Z" fill="#D80027"/>
<path d="M13.0972 19.8252L13.3562 20.6223H14.1944L13.5163 21.115L13.7753 21.9121L13.0972 21.4195L12.4191 21.9121L12.6781 21.115L12 20.6223H12.8381L13.0972 19.8252Z" fill="#FFDA44"/>
<path d="M19.7727 14.6093L20.0317 15.4065H20.8699L20.1918 15.8992L20.4509 16.6963L19.7727 16.2037L19.0947 16.6963L19.3537 15.8992L18.6755 15.4065H19.5137L19.7727 14.6093Z" fill="#FFDA44"/>
<path d="M21.4451 6.78255L21.7041 7.5797H22.5423L21.8642 8.07236L22.1232 8.86947L21.4451 8.37686L20.767 8.86947L21.026 8.07236L20.3479 7.5797H21.1861L21.4451 6.78255Z" fill="#FFDA44"/>
<path d="M21.8594 12.5214L22.1184 13.3186H22.9566L22.2785 13.8113L22.5376 14.6084L21.8594 14.1158L21.1814 14.6084L21.4404 13.8113L20.7622 13.3186H21.6004L21.8594 12.5214Z" fill="#FFDA44"/>
<path d="M14.299 17.9513L15.0459 18.3319L15.6386 17.7393L15.5075 18.567L16.2543 18.9475L15.4264 19.0787L15.2953 19.9066L14.9148 19.1597L14.0869 19.2909L14.6796 18.6983L14.299 17.9513Z" fill="#FFDA44"/>
<path d="M14.299 14.8214L15.0459 15.2019L15.6386 14.6093L15.5075 15.4371L16.2543 15.8176L15.4264 15.9487L15.2953 16.7766L14.9148 16.0298L14.0869 16.1609L14.6796 15.5683L14.299 14.8214Z" fill="#FFDA44"/>
<path d="M16.9079 16.8271L17.6548 17.2077L18.2475 16.615L18.1164 17.4428L18.8632 17.8233L18.0353 17.9545L17.9041 18.7824L17.5237 18.0355L16.6958 18.1667L17.2884 17.5741L16.9079 16.8271Z" fill="#FFDA44"/>
<path d="M16.9079 10.1248L17.6548 10.5053L18.2475 9.9127L18.1164 10.7405L18.8632 11.121L18.0353 11.2521L17.9041 12.08L17.5237 11.3332L16.6958 11.4643L17.2884 10.8717L16.9079 10.1248Z" fill="#FFDA44"/>
<path d="M19.4364 10.0444L20.1834 10.425L20.776 9.83233L20.6449 10.6601L21.3917 11.0406L20.5638 11.1718L20.4327 11.9996L20.0523 11.2528L19.2244 11.384L19.817 10.7913L19.4364 10.0444Z" fill="#FFDA44"/>
</g>
<defs>
<clipPath id="clip0_6436_63323">
<rect width="24" height="24" fill="white"/>
</clipPath>
</defs>
</svg>
