<svg width="24" height="24" viewBox="0 0 24 24" fill="none" xmlns="http://www.w3.org/2000/svg">
<g clip-path="url(#clip0_6436_63222)">
<path d="M12 24C18.6274 24 24 18.6274 24 12C24 5.37258 18.6274 0 12 0C5.37258 0 0 5.37258 0 12C0 18.6274 5.37258 24 12 24Z" fill="#FFDA44"/>
<path d="M3.51471 20.4855C4.0181 20.9889 4.55519 21.4379 5.11858 21.8331L21.8328 5.11884C21.4376 4.55545 20.9887 4.01836 20.4853 3.51497C19.9818 3.01158 19.4448 2.5627 18.8814 2.16745L2.16724 18.8817C2.56239 19.445 3.01136 19.9821 3.51471 20.4855Z" fill="black"/>
<path d="M3.51447 3.5138C-0.271251 7.29961 -0.998048 12.9851 1.33272 17.5012L17.5019 1.3321C12.9858 -0.998668 7.30023 -0.271825 3.51447 3.5138Z" fill="#6DA544"/>
<path d="M20.4849 20.4851C24.2706 16.6994 24.9974 11.0138 22.6667 6.49771L6.49756 22.6669C11.0135 24.9976 16.6992 24.2708 20.4849 20.4851Z" fill="#338AF3"/>
</g>
<defs>
<clipPath id="clip0_6436_63222">
<rect width="24" height="24" fill="white"/>
</clipPath>
</defs>
</svg>
