<svg width="24" height="24" viewBox="0 0 24 24" fill="none" xmlns="http://www.w3.org/2000/svg">
<g clip-path="url(#clip0_6436_63346)">
<path d="M20.9429 20.0002C22.8434 17.8771 23.9995 15.0739 23.9995 12.0002C23.9995 8.92652 22.8433 6.12326 20.9429 4.00019L11.9995 3.13066L3.05614 4.00019C1.15568 6.12326 -0.000488281 8.92652 -0.000488281 12.0002C-0.000488281 15.0739 1.15564 17.8771 3.05609 20.0002L11.9995 20.8698L20.9429 20.0002Z" fill="#FFDA44"/>
<path d="M3.05664 4.00049H20.9434C18.7462 1.54579 15.5537 0.00050354 12 0.00050354C8.44628 0.00050354 5.25386 1.54579 3.05664 4.00049Z" fill="black"/>
<path d="M-0.000488281 12.0007L11.9995 13.0442L23.9995 12.0007C23.9995 10.598 23.7581 9.25186 23.3157 8.00067H0.683324C0.240965 9.25186 -0.000488281 10.598 -0.000488281 12.0007Z" fill="#D80027"/>
<path d="M0.683324 15.9993H23.3158C23.7581 14.7481 23.9995 13.402 23.9995 11.9993H-0.000488281C-0.000488281 13.402 0.240965 14.7481 0.683324 15.9993Z" fill="black"/>
<path d="M20.9435 19.9995H3.05664C5.25386 22.4542 8.44628 23.9995 12.0001 23.9995C15.5538 23.9995 18.7463 22.4542 20.9435 19.9995Z" fill="#D80027"/>
<path d="M16.0041 12.0007C16.0041 14.2124 14.2114 16.0051 11.9997 16.0051C9.788 16.0051 7.99536 14.2124 7.99536 12.0007C7.99536 9.78901 9.788 7.99637 11.9997 7.99637C14.2114 7.99637 16.0041 9.78901 16.0041 12.0007Z" fill="#F0F0F0"/>
<path d="M13.4666 12.2036L11.9997 11.568C11.9997 11.568 12.3429 10.4288 12.3612 10.3508C12.3745 10.2939 12.3817 10.2345 12.3817 10.1734C12.3817 9.9573 12.294 9.76164 12.1524 9.62008L12.5213 9.25117C12.2853 9.01516 11.9592 8.86914 11.599 8.86914C11.2388 8.86914 10.9127 9.01511 10.6767 9.25117L11.0456 9.62008C10.9039 9.76169 10.8164 9.95734 10.8164 10.1734C10.8164 10.2525 10.8283 10.3286 10.8501 10.4006L10.2947 10.956H11.3042C11.3042 10.956 10.8868 11.5829 10.6589 12.0977C10.4311 12.6125 10.6621 13.2409 11.1887 13.475L11.4932 13.6104L11.9997 14.0864V14.6081L11.4779 15.1299H12.5214V14.0864L12.9975 13.6103H13.9823C13.987 13.6005 13.992 13.5909 13.9965 13.5809C14.2305 13.0543 13.9933 12.4376 13.4666 12.2036Z" fill="black"/>
</g>
<defs>
<clipPath id="clip0_6436_63346">
<rect width="24" height="24" fill="white"/>
</clipPath>
</defs>
</svg>
