<svg width="24" height="24" viewBox="0 0 24 24" fill="none" xmlns="http://www.w3.org/2000/svg">
<g clip-path="url(#clip0_6436_63403)">
<path d="M0.566869 8.34788C0.199275 9.4995 0.000197274 10.7264 0.000244149 11.9999C0.000197274 13.2735 0.199322 14.5005 0.566916 15.6521L12.0002 16.1739L23.4336 15.6522C23.8011 14.5005 24.0003 13.2735 24.0003 12C24.0003 10.7264 23.8012 9.4995 23.4336 8.34783L12.0002 7.82611L0.566869 8.34788Z" fill="#F0F0F0"/>
<path d="M23.4332 8.34783L11.9999 7.82611L0.5665 8.34783C0.457563 8.68927 0.363766 9.03741 0.285156 9.39131H23.7144C23.6359 9.03736 23.5421 8.68917 23.4332 8.34783Z" fill="#D80027"/>
<path d="M0.285156 14.609C0.363672 14.9629 0.457469 15.311 0.566406 15.6524L0.567531 15.6525L11.9997 16.1742L23.433 15.6525C23.542 15.3111 23.6358 14.9629 23.7143 14.609H0.285156Z" fill="#D80027"/>
<path d="M12.0004 24.0007C17.3543 24.0007 21.8885 20.4943 23.4338 15.6529H0.567139C2.11237 20.4943 6.64669 24.0007 12.0004 24.0007Z" fill="#6DA544"/>
<path d="M12 -0.000823974C6.6462 -0.000777099 2.11198 3.50561 0.56665 8.347L23.4333 8.34705C21.8881 3.50557 17.3539 -0.000870849 12 -0.000823974Z" fill="#338AF3"/>
<path d="M5.48351 4.95627C5.48351 3.83235 6.2734 2.89344 7.32823 2.6631C7.16614 2.62766 6.9979 2.60849 6.82512 2.60849C5.52847 2.60849 4.47729 3.65962 4.47729 4.95632C4.47729 6.25302 5.52837 7.30415 6.82512 7.30415C6.9979 7.30415 7.16609 7.28493 7.32823 7.24954C6.27345 7.0191 5.48351 6.0802 5.48351 4.95627Z" fill="#F0F0F0"/>
<path d="M8.71531 6.02243L8.87421 6.51157H9.38853L8.97246 6.81392L9.13137 7.30306L8.71531 7.00076L8.29915 7.30306L8.4581 6.81392L8.04199 6.51157H8.55631L8.71531 6.02243Z" fill="#F0F0F0"/>
<path d="M10.3575 6.02243L10.5165 6.51157H11.0308L10.6147 6.81392L10.7737 7.30306L10.3575 7.00076L9.94144 7.30306L10.1004 6.81392L9.68433 6.51157H10.1986L10.3575 6.02243Z" fill="#F0F0F0"/>
<path d="M11.9988 6.02243L12.1577 6.51157H12.672L12.2559 6.81392L12.4148 7.30306L11.9988 7.00076L11.5826 7.30306L11.7416 6.81392L11.3254 6.51157H11.8398L11.9988 6.02243Z" fill="#F0F0F0"/>
<path d="M13.6408 6.02243L13.7998 6.51157H14.3141L13.898 6.81392L14.0569 7.30306L13.6408 7.00076L13.2247 7.30306L13.3837 6.81392L12.9675 6.51157H13.4818L13.6408 6.02243Z" fill="#F0F0F0"/>
<path d="M15.2823 6.02243L15.4413 6.51157H15.9556L15.5396 6.81392L15.6985 7.30306L15.2823 7.00076L14.8662 7.30306L15.0252 6.81392L14.6091 6.51157H15.1234L15.2823 6.02243Z" fill="#F0F0F0"/>
<path d="M10.3575 4.31516L10.5165 4.80425H11.0308L10.6147 5.10664L10.7737 5.59573L10.3575 5.29344L9.94144 5.59573L10.1004 5.10664L9.68433 4.80425H10.1986L10.3575 4.31516Z" fill="#F0F0F0"/>
<path d="M11.9988 4.31516L12.1577 4.80425H12.672L12.2559 5.10664L12.4148 5.59573L11.9988 5.29344L11.5826 5.59573L11.7416 5.10664L11.3254 4.80425H11.8398L11.9988 4.31516Z" fill="#F0F0F0"/>
<path d="M13.6408 4.31516L13.7998 4.80425H14.3141L13.898 5.10664L14.0569 5.59573L13.6408 5.29344L13.2247 5.59573L13.3837 5.10664L12.9675 4.80425H13.4818L13.6408 4.31516Z" fill="#F0F0F0"/>
<path d="M15.2823 4.31516L15.4413 4.80425H15.9556L15.5396 5.10664L15.6985 5.59573L15.2823 5.29344L14.8662 5.59573L15.0252 5.10664L14.6091 4.80425H15.1234L15.2823 4.31516Z" fill="#F0F0F0"/>
<path d="M11.9988 2.60806L12.1577 3.09725H12.672L12.2559 3.39955L12.4148 3.88873L11.9988 3.58644L11.5826 3.88873L11.7416 3.39955L11.3254 3.09725H11.8398L11.9988 2.60806Z" fill="#F0F0F0"/>
<path d="M13.6408 2.60806L13.7998 3.09725H14.3141L13.898 3.39955L14.0569 3.88873L13.6408 3.58644L13.2247 3.88873L13.3837 3.39955L12.9675 3.09725H13.4818L13.6408 2.60806Z" fill="#F0F0F0"/>
<path d="M15.2823 2.60806L15.4413 3.09725H15.9556L15.5396 3.39955L15.6985 3.88873L15.2823 3.58644L14.8662 3.88873L15.0252 3.39955L14.6091 3.09725H15.1234L15.2823 2.60806Z" fill="#F0F0F0"/>
</g>
<defs>
<clipPath id="clip0_6436_63403">
<rect width="24" height="24" fill="white"/>
</clipPath>
</defs>
</svg>
