<svg width="24" height="24" viewBox="0 0 24 24" fill="none" xmlns="http://www.w3.org/2000/svg">
<g clip-path="url(#clip0_6436_63142)">
<path d="M17.739 1.45935C16.0342 0.529165 14.0788 0.000274658 11.9999 0.000274658C9.921 0.000274658 7.96566 0.529165 6.26077 1.45935L5.21729 12.0003L6.26077 22.5412C7.96566 23.4714 9.921 24.0003 11.9999 24.0003C14.0788 24.0003 16.0342 23.4714 17.739 22.5412L18.7825 12.0003L17.739 1.45935Z" fill="#FFDA44"/>
<path d="M6.2611 22.5408V1.45905C2.53098 3.49436 0.000244141 7.4515 0.000244141 12C0.000244141 16.5485 2.53098 20.5057 6.2611 22.5408Z" fill="#338AF3"/>
<path d="M24.0004 12.0002C24.0004 7.45165 21.4696 3.49451 17.7395 1.4592V22.541C21.4696 20.5058 24.0004 16.5487 24.0004 12.0002Z" fill="#6DA544"/>
<path d="M9.39195 15.1298L7.30493 11.9993L9.3919 8.86887L11.479 11.9993L9.39195 15.1298Z" fill="#6DA544"/>
<path d="M14.6097 15.1298L12.5227 11.9993L14.6097 8.86887L16.6966 11.9993L14.6097 15.1298Z" fill="#6DA544"/>
<path d="M12.0008 19.3037L9.91382 16.1733L12.0008 13.0429L14.0878 16.1733L12.0008 19.3037Z" fill="#6DA544"/>
</g>
<defs>
<clipPath id="clip0_6436_63142">
<rect width="24" height="24" fill="white"/>
</clipPath>
</defs>
</svg>
