<svg width="24" height="24" viewBox="0 0 24 24" fill="none" xmlns="http://www.w3.org/2000/svg">
<g clip-path="url(#clip0_6436_61695)">
<path d="M24 12C24 18.6274 18.6274 24 12 24C5.37262 24 0 18.6274 0 12C0 12.0029 12 0.0013125 12 0C18.6274 0 24 5.37262 24 12Z" fill="#0052B4"/>
<path d="M11.968 12.0007H12.0002C12.0002 11.9899 12.0002 11.9794 12.0002 11.9686C11.9895 11.9793 11.9788 11.99 11.968 12.0007Z" fill="#F0F0F0"/>
<path d="M11.9997 6.26178C11.9997 4.15029 11.9997 2.76677 11.9997 0.000915527H11.9977C5.37121 0.00204053 -0.000244141 5.37415 -0.000244141 12.0009H6.26061V8.4754L9.78613 12.0009H11.9677C11.9784 11.9902 11.9891 11.9795 11.9998 11.9688C11.9998 11.1604 11.9998 10.439 11.9998 9.78738L8.47419 6.26178H11.9997Z" fill="#F0F0F0"/>
<path d="M6.07051 1.56415C4.19368 2.63285 2.63335 4.19313 1.5647 6.06996V11.9989H4.69515V4.6947V4.6946H11.9995C11.9995 3.70727 11.9995 2.76668 11.9995 1.56415H6.07051Z" fill="#D80027"/>
<path d="M17.218 11.9996L13.9746 15.2431C14.5825 16.4154 15.8063 17.217 17.218 17.217C18.6298 17.217 19.8536 16.4154 20.4615 15.2431L17.218 11.9996Z" fill="#FFDA44"/>
<path d="M11.9996 10.5244L7.73612 6.26099H6.2605V6.26108L11.9995 12.0001H11.9996C11.9996 12.0001 11.9996 10.9826 11.9996 10.5244Z" fill="#D80027"/>
<path d="M13.5652 6.26099V12.0001V12.0001C13.5652 14.7957 17.2174 15.6523 17.2174 15.6523C17.2174 15.6523 20.8695 14.7957 20.8695 12.0001V12.0001V6.26099H13.5652Z" fill="#6DA544"/>
<path d="M18 8.86987H16.4348V13.0438H18V8.86987Z" fill="#F0F0F0"/>
<path d="M17.2172 9.65174C17.6494 9.65174 17.9998 9.30135 17.9998 8.86911C17.9998 8.43688 17.6494 8.08649 17.2172 8.08649C16.785 8.08649 16.4346 8.43688 16.4346 8.86911C16.4346 9.30135 16.785 9.65174 17.2172 9.65174Z" fill="#A2001D"/>
<path d="M15.6531 7.30481H14.6096V8.34829H15.6531V7.30481Z" fill="#FFDA44"/>
<path d="M15.6524 9.65198H14.6089V10.6955H15.6524V9.65198Z" fill="#FFDA44"/>
<path d="M15.6524 12.0005H14.6089V13.044H15.6524V12.0005Z" fill="#FFDA44"/>
<path d="M19.8264 7.30548H18.783V8.34897H19.8264V7.30548Z" fill="#FFDA44"/>
<path d="M19.8264 9.65198H18.783V10.6955H19.8264V9.65198Z" fill="#FFDA44"/>
<path d="M19.8264 12.0005H18.783V13.044H19.8264V12.0005Z" fill="#FFDA44"/>
</g>
<defs>
<clipPath id="clip0_6436_61695">
<rect width="24" height="24" fill="white"/>
</clipPath>
</defs>
</svg>
