<svg width="24" height="24" viewBox="0 0 24 24" fill="none" xmlns="http://www.w3.org/2000/svg">
<g clip-path="url(#clip0_6436_61536)">
<path d="M24.0002 12.0004C24.0002 11.4699 23.9654 10.9475 23.8986 10.4352H10.4349C7.9833 7.98371 3.51476 3.51545 3.51495 3.51508C-1.17132 8.20135 -1.17132 15.7993 3.51495 20.4857L10.435 13.5656H23.8986C23.9653 13.0532 24.0002 12.5309 24.0002 12.0004Z" fill="black"/>
<path d="M23.9966 12.2726C23.996 12.2958 23.9955 12.319 23.9949 12.3422C23.9954 12.3189 23.996 12.2958 23.9966 12.2726Z" fill="#F0F0F0"/>
<path d="M23.9851 12.6003C23.984 12.6232 23.9824 12.6461 23.9812 12.669C23.9824 12.6461 23.9839 12.6232 23.9851 12.6003Z" fill="#F0F0F0"/>
<path d="M23.9682 12.8633C23.9658 12.897 23.9634 12.9308 23.9607 12.9644C23.9634 12.9308 23.9657 12.897 23.9682 12.8633Z" fill="#F0F0F0"/>
<path d="M23.9285 10.6922C23.9329 10.7324 23.9373 10.7725 23.9413 10.8128C23.9373 10.7725 23.9328 10.7324 23.9285 10.6922Z" fill="#F0F0F0"/>
<path d="M23.9805 11.3299C23.9817 11.3528 23.9833 11.3756 23.9844 11.3986C23.9832 11.3756 23.9817 11.3527 23.9805 11.3299Z" fill="#F0F0F0"/>
<path d="M23.9944 11.6568C23.995 11.68 23.9955 11.7033 23.9961 11.7264C23.9956 11.7032 23.995 11.68 23.9944 11.6568Z" fill="#F0F0F0"/>
<path d="M23.9609 11.0356C23.9637 11.0692 23.966 11.103 23.9684 11.1367C23.966 11.103 23.9637 11.0692 23.9609 11.0356Z" fill="#F0F0F0"/>
<path d="M23.8987 10.4344C23.9041 10.4755 23.9089 10.5168 23.9138 10.558C23.2016 4.61044 18.1397 -0.000366211 12.0003 -0.000366211C8.68651 -0.000366211 5.68647 1.34283 3.51489 3.5145L10.4348 10.4344H23.8987V10.4344Z" fill="#D80027"/>
<path d="M23.8987 13.5652H10.4348L3.51489 20.4851C5.68647 22.6567 8.68651 24 12.0003 24C18.1397 24 23.2016 19.3892 23.9138 13.4415C23.9089 13.4827 23.904 13.5241 23.8987 13.5652Z" fill="#6DA544"/>
<path d="M23.9413 13.1877C23.9373 13.228 23.9329 13.2681 23.9285 13.3083C23.9329 13.2681 23.9373 13.2281 23.9413 13.1877Z" fill="#F0F0F0"/>
<path d="M23.9685 11.137C23.9731 11.2012 23.9772 11.2655 23.9807 11.33C23.9771 11.2655 23.9731 11.2012 23.9685 11.137Z" fill="black"/>
<path d="M23.9133 10.5583C23.9187 10.6029 23.9238 10.6475 23.9286 10.6922C23.9237 10.6475 23.9186 10.6029 23.9133 10.5583Z" fill="black"/>
<path d="M23.9412 10.8124C23.9485 10.8869 23.9551 10.9616 23.9611 11.0367C23.9551 10.9616 23.9485 10.8869 23.9412 10.8124Z" fill="black"/>
<path d="M24.0005 11.9999C24.0005 12.0913 23.9991 12.1823 23.9971 12.273C23.9991 12.1822 24.0005 12.0912 24.0005 11.9999Z" fill="black"/>
<path d="M23.9807 12.6689C23.9771 12.7334 23.973 12.7977 23.9685 12.8619C23.973 12.7977 23.9771 12.7334 23.9807 12.6689Z" fill="black"/>
<path d="M23.9611 12.9641C23.9551 13.039 23.9485 13.1137 23.9412 13.1882C23.9485 13.1137 23.9551 13.039 23.9611 12.9641Z" fill="black"/>
<path d="M23.9286 13.3081C23.9238 13.3528 23.9187 13.3974 23.9133 13.4419C23.9186 13.3974 23.9237 13.3528 23.9286 13.3081Z" fill="black"/>
<path d="M23.9971 11.7275C23.9991 11.8183 24.0005 11.9093 24.0005 12.0006C24.0005 11.9093 23.9991 11.8183 23.9971 11.7275Z" fill="black"/>
<path d="M23.9856 11.3982C23.9898 11.4841 23.993 11.5704 23.9954 11.6569C23.993 11.5704 23.9899 11.4841 23.9856 11.3982Z" fill="black"/>
<path d="M23.9955 12.3419C23.993 12.4283 23.9898 12.5146 23.9856 12.6006C23.9899 12.5146 23.9931 12.4283 23.9955 12.3419Z" fill="black"/>
<path d="M23.989 11.4733H9.99426L2.80566 4.28577C2.5733 4.53083 2.32144 4.87302 2.16568 5.11672L9.04031 11.995L2.15991 18.8755C2.29613 19.1178 2.5929 19.4765 2.80125 19.7099L9.9944 12.5168H23.9907C23.9981 12.3437 24.0005 12.1699 24.0005 11.995C24.0004 11.7608 23.994 11.588 23.989 11.4733Z" fill="#FFDA44"/>
<path d="M2.91515 14.5574V13.5522C3.91818 13.5522 4.73413 12.7362 4.73413 11.7333C4.73413 11.0236 4.15677 10.4463 3.44718 10.4463C2.96376 10.4463 2.57043 10.8396 2.57043 11.3231C2.57043 11.6322 2.82191 11.8838 3.1311 11.8838C3.30585 11.8838 3.44802 11.7415 3.44802 11.5668H4.45311C4.45311 12.2958 3.86005 12.8889 3.13115 12.8889C2.26776 12.8889 1.56543 12.1864 1.56543 11.3232C1.56543 10.2855 2.40965 9.44135 3.44722 9.44135C4.71106 9.44135 5.73931 10.4696 5.73931 11.7334C5.73927 13.2904 4.47238 14.5574 2.91515 14.5574Z" fill="#FFDA44"/>
</g>
<defs>
<clipPath id="clip0_6436_61536">
<rect width="24" height="24" fill="white"/>
</clipPath>
</defs>
</svg>
