<svg width="24" height="24" viewBox="0 0 24 24" fill="none" xmlns="http://www.w3.org/2000/svg">
<g clip-path="url(#clip0_6436_63073)">
<path d="M12 24C18.6274 24 24 18.6274 24 12C24 5.37258 18.6274 0 12 0C5.37258 0 0 5.37258 0 12C0 18.6274 5.37258 24 12 24Z" fill="#F0F0F0"/>
<path d="M3.51422 20.4852C-1.17206 15.7989 -1.17206 8.20094 3.51422 3.51461C3.51389 3.51513 10.4343 11.9999 10.4343 11.9999L3.51422 20.4852Z" fill="black"/>
<path d="M10.4349 12.0002L1.59162 6.02423C1.31745 6.50081 1.07567 6.99825 0.86792 7.51312L5.3449 12.0002L0.868061 16.4876C1.07562 17.0021 1.31717 17.4992 1.59115 17.9754L10.4349 12.0002Z" fill="#FFDA44"/>
<path d="M23.8987 10.4347H10.4347L3.51482 3.51481C2.76914 4.26049 2.12128 5.10382 1.59178 6.02403L7.55611 11.9999L1.59131 17.9751C2.12081 18.8955 2.76895 19.7391 3.51482 20.485L10.4347 13.5651H23.8987C23.9654 13.0528 24.0002 12.5304 24.0002 11.9999C24.0002 11.4694 23.9654 10.9471 23.8987 10.4347Z" fill="#6DA544"/>
<path d="M4.6936 21.5181C6.71715 23.0735 9.25014 23.9988 11.9996 23.9988C17.544 23.9988 22.2092 20.2385 23.5862 15.1293H11.0824L4.6936 21.5181Z" fill="#0052B4"/>
<path d="M23.5862 8.86873C22.2092 3.75955 17.544 -0.000813484 11.9996 -0.000813484C9.25014 -0.000813484 6.71715 0.924546 4.6936 2.47995L11.0824 8.86873H23.5862Z" fill="#D80027"/>
</g>
<defs>
<clipPath id="clip0_6436_63073">
<rect width="24" height="24" fill="white"/>
</clipPath>
</defs>
</svg>
