<svg width="296" height="136" viewBox="0 0 296 136" fill="none" xmlns="http://www.w3.org/2000/svg">
<path d="M247.61 131.845V132.845H248.61H283.001H284.001V131.845V114.845H294H295V113.845V85.9987V84.9987H294H284.001V24.1526V23.1526H283.001H248.765H248.244L247.945 23.5803L201.781 89.7341L201.601 89.992V90.3064V113.845V114.845H202.601H247.61V131.845Z" fill="#E9D7FE" stroke="#E9D7FE" stroke-width="2"/>
<path d="M116.335 122.376L116.343 122.385L116.351 122.393C120.687 126.804 125.669 130.018 131.291 132.019C136.879 134.009 142.829 135 149.132 135C155.435 135 161.384 134.009 166.972 132.019C172.596 130.017 177.53 126.801 181.766 122.384L181.766 122.384L181.774 122.376C186.024 117.838 189.341 111.908 191.751 104.628C194.275 97.3139 195.521 88.4294 195.521 78V74.9231C195.521 65.1057 194.274 56.7773 191.744 49.9679C189.331 43.0949 186.009 37.5233 181.753 33.2948C177.517 28.9843 172.585 25.8752 166.964 23.9782C161.379 21.9905 155.432 21 149.132 21C142.831 21 136.885 21.9905 131.299 23.9782C125.679 25.8751 120.697 28.9833 116.36 33.2905C112.1 37.5213 108.775 43.0972 106.361 49.9766L106.361 49.9766L106.359 49.9851C104.04 56.787 102.897 65.1087 102.897 74.9231V78C102.897 88.4258 104.04 97.3034 106.352 104.609L106.352 104.609L106.356 104.622C108.765 111.905 112.083 117.837 116.335 122.376ZM155.976 100.337L155.971 100.347L155.967 100.356C155.086 102.301 154.06 103.544 152.948 104.224C151.76 104.95 150.494 105.308 149.132 105.308C147.77 105.308 146.504 104.95 145.316 104.224C144.194 103.538 143.119 102.288 142.138 100.346C141.258 98.2984 140.505 95.526 139.896 91.9994C139.39 88.3728 139.133 83.7108 139.133 78V74.9231C139.133 68.3989 139.596 63.3698 140.494 59.7953C141.508 56.1739 142.731 53.8363 144.068 52.5903C145.538 51.3181 147.212 50.6923 149.132 50.6923C151.056 50.6923 152.67 51.32 154.029 52.5796L154.041 52.5905L154.053 52.601C155.474 53.8357 156.699 56.1587 157.612 59.7826C158.512 63.3579 158.976 68.3912 158.976 74.9231V78C158.976 83.7181 158.718 88.3847 158.211 92.0133C157.702 95.548 156.948 98.3094 155.976 100.337Z" fill="#E9D7FE" stroke="#E9D7FE" stroke-width="2"/>
<path d="M47.0093 131.845V132.845H48.0093H82.4002H83.4002V131.845V114.845H93.399H94.399V113.845V85.9987V84.9987H93.399H83.4002V24.1526V23.1526H82.4002H48.1642H47.6427L47.3442 23.5803L1.17993 89.7341L1 89.992V90.3064V113.845V114.845H2H47.0093V131.845Z" fill="#E9D7FE" stroke="#E9D7FE" stroke-width="2"/>
<path d="M247.61 112.826V113.826H248.61H283.001H284.001V112.826V95.665H294H295V94.665V66.5703V65.5703H294H284.001V4.17191V3.17191H283.001H248.765H248.241L247.943 3.60306L201.779 70.3476L201.601 70.6043V70.9164V94.665V95.665H202.601H247.61V112.826ZM247.61 42.4765V65.5703H231.765L247.61 42.4765Z" fill="white" stroke="#7F56D9" stroke-width="2"/>
<path d="M116.332 103.263L116.34 103.272L116.348 103.28C120.684 107.73 125.666 110.972 131.288 112.992C136.877 114.999 142.828 116 149.132 116C155.436 116 161.386 114.999 166.975 112.992C172.6 110.971 177.534 107.727 181.769 103.271L181.769 103.271L181.777 103.263C186.027 98.6853 189.343 92.7044 191.752 85.3606C194.275 77.9836 195.521 69.0215 195.521 58.5V55.3956C195.521 45.492 194.274 37.0914 191.745 30.2233C189.333 23.2907 186.012 17.6707 181.756 13.4051C177.521 9.05668 172.588 5.91949 166.967 4.00521C161.38 1.99955 155.433 1 149.132 1C142.83 1 136.883 1.99955 131.296 4.0052C125.675 5.91937 120.693 9.0556 116.357 13.4007C112.097 17.6686 108.774 23.293 106.361 30.2319L106.36 30.2319L106.358 30.2404C104.04 37.1009 102.897 45.4949 102.897 55.3956V58.5C102.897 69.0176 104.039 77.9727 106.351 85.3419L106.351 85.3419L106.355 85.3542C108.764 92.7009 112.081 98.684 116.332 103.263ZM155.974 81.0433L155.97 81.053L155.965 81.0628C155.083 83.0263 154.057 84.2815 152.944 84.9675C151.757 85.6999 150.492 86.0604 149.132 86.0604C147.771 86.0604 146.507 85.6999 145.319 84.9675C144.198 84.276 143.122 83.0132 142.139 81.0522C141.259 78.985 140.505 76.1863 139.896 72.6271C139.39 68.967 139.133 64.2624 139.133 58.5V55.3956C139.133 48.8124 139.596 43.7366 140.494 40.1282C141.509 36.473 142.733 34.1122 144.071 32.8539C145.541 31.5699 147.214 30.9396 149.132 30.9396C151.053 30.9396 152.666 31.5718 154.026 32.843L154.037 32.854L154.049 32.8646C155.472 34.1115 156.698 36.4576 157.611 40.1157C158.512 43.7249 158.976 48.8048 158.976 55.3956V58.5C158.976 64.2691 158.718 68.978 158.211 72.64C157.702 76.2078 156.947 78.9958 155.974 81.0433Z" fill="white" stroke="#7F56D9" stroke-width="2"/>
<path d="M47.0093 112.826V113.826H48.0093H82.4002H83.4002V112.826V95.665H93.399H94.399V94.665V66.5703V65.5703H93.399H83.4002V4.17191V3.17191H82.4002H48.1642H47.64L47.3418 3.60306L1.17756 70.3476L1 70.6043V70.9164V94.665V95.665H2H47.0093V112.826ZM47.0093 42.4765V65.5703H31.1637L47.0093 42.4765Z" fill="white" stroke="#7F56D9" stroke-width="2"/>
</svg>
