<svg width="40" height="40" viewBox="0 0 40 40" fill="none" xmlns="http://www.w3.org/2000/svg">
<path d="M37.5062 29.0439V10C37.5062 8.34315 36.163 7 34.5062 7H17.4961C15.8392 7 14.4961 8.34315 14.4961 10V29.0218C14.4961 30.2219 15.2113 31.3065 16.3144 31.7792L25.3641 35.6576C25.8738 35.876 26.4513 35.873 26.9586 35.6494L35.7162 31.789C36.8041 31.3095 37.5062 30.2328 37.5062 29.0439Z" fill="url(#paint0_linear_11518_36515)"/>
<g filter="url(#filter0_bi_11518_36515)">
<path d="M28.9276 26.1263V7C28.9276 5.34315 27.5844 4 25.9276 4H7C5.34315 4 4 5.34315 4 7V26.1033C4 27.2617 4.66697 28.3166 5.71347 28.8134L15.7694 33.587C16.3192 33.848 16.9578 33.8445 17.5046 33.5775L27.2438 28.8221C28.2741 28.3191 28.9276 27.2728 28.9276 26.1263Z" fill="#77F2CF" fill-opacity="0.4"/>
<path d="M28.9276 26.1263V7C28.9276 5.34315 27.5844 4 25.9276 4H7C5.34315 4 4 5.34315 4 7V26.1033C4 27.2617 4.66697 28.3166 5.71347 28.8134L15.7694 33.587C16.3192 33.848 16.9578 33.8445 17.5046 33.5775L27.2438 28.8221C28.2741 28.3191 28.9276 27.2728 28.9276 26.1263Z" stroke="url(#paint1_linear_11518_36515)" stroke-opacity="0.65" stroke-width="0.2"/>
</g>
<path fill-rule="evenodd" clip-rule="evenodd" d="M23.4587 14.3931C23.9822 14.9166 23.9822 15.7653 23.4587 16.2887L16.2225 23.5249C15.5827 24.1647 14.5454 24.1647 13.9056 23.5249L10.3928 20.0121C9.86938 19.4887 9.86938 18.64 10.3928 18.1165C10.9163 17.593 11.765 17.593 12.2885 18.1165L15.0641 20.8921L21.5631 14.3931C22.0865 13.8696 22.9352 13.8696 23.4587 14.3931Z" fill="#FCFCFD"/>
<defs>
<filter id="filter0_bi_11518_36515" x="-0.100098" y="-0.100098" width="33.1277" height="37.9805" filterUnits="userSpaceOnUse" color-interpolation-filters="sRGB">
<feFlood flood-opacity="0" result="BackgroundImageFix"/>
<feGaussianBlur in="BackgroundImageFix" stdDeviation="2"/>
<feComposite in2="SourceAlpha" operator="in" result="effect1_backgroundBlur_11518_36515"/>
<feBlend mode="normal" in="SourceGraphic" in2="effect1_backgroundBlur_11518_36515" result="shape"/>
<feColorMatrix in="SourceAlpha" type="matrix" values="0 0 0 0 0 0 0 0 0 0 0 0 0 0 0 0 0 0 127 0" result="hardAlpha"/>
<feOffset dx="-0.5" dy="-0.5"/>
<feGaussianBlur stdDeviation="1.15"/>
<feComposite in2="hardAlpha" operator="arithmetic" k2="-1" k3="1"/>
<feColorMatrix type="matrix" values="0 0 0 0 1 0 0 0 0 1 0 0 0 0 1 0 0 0 0.35 0"/>
<feBlend mode="normal" in2="shape" result="effect2_innerShadow_11518_36515"/>
</filter>
<linearGradient id="paint0_linear_11518_36515" x1="26.0046" y1="1.72736" x2="26.0046" y2="36.0001" gradientUnits="userSpaceOnUse">
<stop stop-color="#63F3D1"/>
<stop offset="1" stop-color="#4AA091"/>
</linearGradient>
<linearGradient id="paint1_linear_11518_36515" x1="27.9609" y1="25" x2="10.9609" y2="34" gradientUnits="userSpaceOnUse">
<stop stop-color="#98FFE7"/>
<stop offset="1" stop-color="#4AA091"/>
</linearGradient>
</defs>
</svg>
